M48
;GenerationSoftware,Autodesk,EAGLE,9.1.3*%
;CreationDate,2018-08-31T23:25:58Z*%
FMAT,2
ICI,OFF
METRIC,TZ,000.000
T5C0.350
T4C1.016
T3C1.118
T2C1.194
%
G90
M71
T2
X10160Y2540
X5080Y2540
X15240Y2540
T3
X13970Y19685
X13970Y17145
X13970Y14605
X13970Y12065
X6350Y12065
X6350Y14605
X6350Y17145
X6350Y19685
T4
X8890Y30480
X3810Y30480
X16510Y27940
X13970Y27940
X11430Y27940
X8890Y27940
X6350Y27940
X3810Y27940
X16510Y30480
X13970Y30480
X11430Y30480
X6350Y30480
T5
X9525Y13970
M30