G04 EAGLE Gerber X2 export*
%TF.Part,Single*%
%TF.FileFunction,Legend,Bot,1*%
%TF.FilePolarity,Positive*%
%TF.GenerationSoftware,Autodesk,EAGLE,9.1.3*%
%TF.CreationDate,2018-08-31T23:25:58Z*%
G75*
%MOMM*%
%FSLAX34Y34*%
%LPD*%
%AMOC8*
5,1,8,0,0,1.08239X$1,22.5*%
G01*
%ADD10C,0.000000*%
%ADD11C,0.076200*%
%ADD12C,0.101600*%


D10*
X0Y0D02*
X199900Y0D01*
X199900Y349150D01*
X0Y349150D01*
X0Y0D01*
D11*
X179247Y91821D02*
X179247Y101219D01*
X179247Y91821D02*
X175070Y91821D01*
X169950Y95476D02*
X167601Y95476D01*
X169950Y95475D02*
X170034Y95473D01*
X170119Y95467D01*
X170202Y95457D01*
X170286Y95444D01*
X170368Y95426D01*
X170450Y95405D01*
X170531Y95380D01*
X170610Y95352D01*
X170688Y95319D01*
X170764Y95283D01*
X170839Y95244D01*
X170912Y95201D01*
X170983Y95155D01*
X171051Y95106D01*
X171117Y95054D01*
X171181Y94998D01*
X171242Y94940D01*
X171300Y94879D01*
X171356Y94815D01*
X171408Y94749D01*
X171457Y94681D01*
X171503Y94610D01*
X171546Y94537D01*
X171585Y94462D01*
X171621Y94386D01*
X171654Y94308D01*
X171682Y94229D01*
X171707Y94148D01*
X171728Y94066D01*
X171746Y93984D01*
X171759Y93900D01*
X171769Y93817D01*
X171775Y93732D01*
X171777Y93648D01*
X171775Y93564D01*
X171769Y93479D01*
X171759Y93396D01*
X171746Y93312D01*
X171728Y93230D01*
X171707Y93148D01*
X171682Y93067D01*
X171654Y92988D01*
X171621Y92910D01*
X171585Y92834D01*
X171546Y92759D01*
X171503Y92686D01*
X171457Y92615D01*
X171408Y92547D01*
X171356Y92481D01*
X171300Y92417D01*
X171242Y92356D01*
X171181Y92298D01*
X171117Y92242D01*
X171051Y92190D01*
X170983Y92141D01*
X170912Y92095D01*
X170839Y92052D01*
X170764Y92013D01*
X170688Y91977D01*
X170610Y91944D01*
X170531Y91916D01*
X170450Y91891D01*
X170368Y91870D01*
X170286Y91852D01*
X170202Y91839D01*
X170119Y91829D01*
X170034Y91823D01*
X169950Y91821D01*
X167601Y91821D01*
X167601Y96520D01*
X167603Y96597D01*
X167609Y96673D01*
X167618Y96750D01*
X167631Y96826D01*
X167648Y96901D01*
X167668Y96975D01*
X167693Y97048D01*
X167720Y97119D01*
X167751Y97190D01*
X167786Y97258D01*
X167824Y97325D01*
X167865Y97390D01*
X167909Y97453D01*
X167956Y97513D01*
X168007Y97572D01*
X168060Y97627D01*
X168115Y97680D01*
X168174Y97731D01*
X168234Y97778D01*
X168297Y97822D01*
X168362Y97863D01*
X168429Y97901D01*
X168497Y97936D01*
X168568Y97967D01*
X168639Y97994D01*
X168712Y98019D01*
X168787Y98039D01*
X168862Y98056D01*
X168937Y98069D01*
X169014Y98078D01*
X169090Y98084D01*
X169167Y98086D01*
X171256Y98086D01*
X163198Y98086D02*
X163198Y91821D01*
X163198Y98086D02*
X160587Y98086D01*
X160510Y98084D01*
X160434Y98078D01*
X160357Y98069D01*
X160281Y98056D01*
X160207Y98039D01*
X160132Y98019D01*
X160059Y97994D01*
X159988Y97967D01*
X159917Y97936D01*
X159849Y97901D01*
X159782Y97863D01*
X159717Y97822D01*
X159654Y97778D01*
X159594Y97731D01*
X159535Y97680D01*
X159480Y97627D01*
X159427Y97572D01*
X159376Y97513D01*
X159329Y97453D01*
X159285Y97390D01*
X159244Y97325D01*
X159206Y97258D01*
X159171Y97190D01*
X159140Y97119D01*
X159113Y97048D01*
X159088Y96975D01*
X159068Y96901D01*
X159051Y96826D01*
X159038Y96750D01*
X159029Y96674D01*
X159023Y96597D01*
X159021Y96520D01*
X159021Y91821D01*
X150837Y91821D02*
X150837Y101219D01*
X150837Y91821D02*
X153448Y91821D01*
X153525Y91823D01*
X153601Y91829D01*
X153678Y91838D01*
X153754Y91851D01*
X153829Y91868D01*
X153903Y91888D01*
X153976Y91913D01*
X154047Y91940D01*
X154118Y91971D01*
X154186Y92006D01*
X154253Y92044D01*
X154318Y92085D01*
X154381Y92129D01*
X154441Y92176D01*
X154500Y92227D01*
X154555Y92280D01*
X154608Y92335D01*
X154659Y92394D01*
X154706Y92454D01*
X154750Y92517D01*
X154791Y92582D01*
X154829Y92649D01*
X154864Y92717D01*
X154895Y92788D01*
X154922Y92859D01*
X154947Y92932D01*
X154967Y93006D01*
X154984Y93081D01*
X154997Y93157D01*
X155006Y93234D01*
X155012Y93310D01*
X155014Y93387D01*
X155014Y96520D01*
X155012Y96597D01*
X155006Y96673D01*
X154997Y96750D01*
X154984Y96826D01*
X154967Y96901D01*
X154947Y96975D01*
X154922Y97048D01*
X154895Y97119D01*
X154864Y97190D01*
X154829Y97258D01*
X154791Y97325D01*
X154750Y97390D01*
X154706Y97453D01*
X154659Y97513D01*
X154608Y97572D01*
X154555Y97627D01*
X154500Y97680D01*
X154441Y97731D01*
X154381Y97778D01*
X154318Y97822D01*
X154253Y97863D01*
X154186Y97901D01*
X154118Y97936D01*
X154047Y97967D01*
X153976Y97994D01*
X153903Y98019D01*
X153829Y98039D01*
X153754Y98056D01*
X153678Y98069D01*
X153601Y98078D01*
X153525Y98084D01*
X153448Y98086D01*
X150837Y98086D01*
X146784Y98086D02*
X146784Y91821D01*
X147045Y100697D02*
X147045Y101219D01*
X146523Y101219D01*
X146523Y100697D01*
X147045Y100697D01*
X142776Y98086D02*
X142776Y91821D01*
X142776Y98086D02*
X140166Y98086D01*
X140089Y98084D01*
X140013Y98078D01*
X139936Y98069D01*
X139860Y98056D01*
X139786Y98039D01*
X139711Y98019D01*
X139638Y97994D01*
X139567Y97967D01*
X139496Y97936D01*
X139428Y97901D01*
X139361Y97863D01*
X139296Y97822D01*
X139233Y97778D01*
X139173Y97731D01*
X139114Y97680D01*
X139059Y97627D01*
X139006Y97572D01*
X138955Y97513D01*
X138908Y97453D01*
X138864Y97390D01*
X138823Y97325D01*
X138785Y97258D01*
X138750Y97190D01*
X138719Y97119D01*
X138692Y97048D01*
X138667Y96975D01*
X138647Y96901D01*
X138630Y96826D01*
X138617Y96750D01*
X138608Y96674D01*
X138602Y96597D01*
X138600Y96520D01*
X138599Y96520D02*
X138599Y91821D01*
X133026Y91821D02*
X130416Y91821D01*
X133026Y91821D02*
X133103Y91823D01*
X133179Y91829D01*
X133256Y91838D01*
X133332Y91851D01*
X133407Y91868D01*
X133481Y91888D01*
X133554Y91913D01*
X133625Y91940D01*
X133696Y91971D01*
X133764Y92006D01*
X133831Y92044D01*
X133896Y92085D01*
X133959Y92129D01*
X134019Y92176D01*
X134078Y92227D01*
X134133Y92280D01*
X134186Y92335D01*
X134237Y92394D01*
X134284Y92454D01*
X134328Y92517D01*
X134369Y92582D01*
X134407Y92649D01*
X134442Y92717D01*
X134473Y92788D01*
X134500Y92859D01*
X134525Y92932D01*
X134545Y93006D01*
X134562Y93081D01*
X134575Y93157D01*
X134584Y93234D01*
X134590Y93310D01*
X134592Y93387D01*
X134592Y96520D01*
X134590Y96597D01*
X134584Y96673D01*
X134575Y96750D01*
X134562Y96826D01*
X134545Y96901D01*
X134525Y96975D01*
X134500Y97048D01*
X134473Y97119D01*
X134442Y97190D01*
X134407Y97258D01*
X134369Y97325D01*
X134328Y97390D01*
X134284Y97453D01*
X134237Y97513D01*
X134186Y97572D01*
X134133Y97627D01*
X134078Y97680D01*
X134019Y97731D01*
X133959Y97778D01*
X133896Y97822D01*
X133831Y97863D01*
X133764Y97901D01*
X133696Y97936D01*
X133625Y97967D01*
X133554Y97994D01*
X133481Y98019D01*
X133407Y98039D01*
X133332Y98056D01*
X133256Y98069D01*
X133179Y98078D01*
X133103Y98084D01*
X133026Y98086D01*
X130416Y98086D01*
X130416Y90255D01*
X130418Y90178D01*
X130424Y90102D01*
X130433Y90025D01*
X130446Y89949D01*
X130463Y89874D01*
X130483Y89800D01*
X130508Y89727D01*
X130535Y89656D01*
X130566Y89585D01*
X130601Y89517D01*
X130639Y89450D01*
X130680Y89385D01*
X130724Y89322D01*
X130771Y89262D01*
X130822Y89203D01*
X130875Y89148D01*
X130930Y89095D01*
X130989Y89044D01*
X131049Y88997D01*
X131112Y88953D01*
X131177Y88912D01*
X131244Y88874D01*
X131312Y88839D01*
X131383Y88808D01*
X131454Y88781D01*
X131527Y88756D01*
X131601Y88736D01*
X131676Y88719D01*
X131752Y88706D01*
X131829Y88697D01*
X131905Y88691D01*
X131982Y88689D01*
X131982Y88688D02*
X134070Y88688D01*
X121031Y91821D02*
X121031Y101219D01*
X121031Y91821D02*
X116854Y91821D01*
X113561Y91821D02*
X113561Y98086D01*
X113822Y100697D02*
X113822Y101219D01*
X113300Y101219D01*
X113300Y100697D01*
X113822Y100697D01*
X108337Y91821D02*
X105727Y91821D01*
X108337Y91821D02*
X108414Y91823D01*
X108490Y91829D01*
X108567Y91838D01*
X108643Y91851D01*
X108718Y91868D01*
X108792Y91888D01*
X108865Y91913D01*
X108936Y91940D01*
X109007Y91971D01*
X109075Y92006D01*
X109142Y92044D01*
X109207Y92085D01*
X109270Y92129D01*
X109330Y92176D01*
X109389Y92227D01*
X109444Y92280D01*
X109497Y92335D01*
X109548Y92394D01*
X109595Y92454D01*
X109639Y92517D01*
X109680Y92582D01*
X109718Y92649D01*
X109753Y92717D01*
X109784Y92788D01*
X109811Y92859D01*
X109836Y92932D01*
X109856Y93006D01*
X109873Y93081D01*
X109886Y93157D01*
X109895Y93234D01*
X109901Y93310D01*
X109903Y93387D01*
X109904Y93387D02*
X109904Y96520D01*
X109903Y96520D02*
X109901Y96597D01*
X109895Y96673D01*
X109886Y96750D01*
X109873Y96826D01*
X109856Y96901D01*
X109836Y96975D01*
X109811Y97048D01*
X109784Y97119D01*
X109753Y97190D01*
X109718Y97258D01*
X109680Y97325D01*
X109639Y97390D01*
X109595Y97453D01*
X109548Y97513D01*
X109497Y97572D01*
X109444Y97627D01*
X109389Y97680D01*
X109330Y97731D01*
X109270Y97778D01*
X109207Y97822D01*
X109142Y97863D01*
X109075Y97901D01*
X109007Y97936D01*
X108936Y97967D01*
X108865Y97994D01*
X108792Y98019D01*
X108718Y98039D01*
X108643Y98056D01*
X108567Y98069D01*
X108490Y98078D01*
X108414Y98084D01*
X108337Y98086D01*
X105727Y98086D01*
X105727Y90255D01*
X105729Y90178D01*
X105735Y90102D01*
X105744Y90025D01*
X105757Y89949D01*
X105774Y89874D01*
X105794Y89800D01*
X105819Y89727D01*
X105846Y89656D01*
X105877Y89585D01*
X105912Y89517D01*
X105950Y89450D01*
X105991Y89385D01*
X106035Y89322D01*
X106082Y89262D01*
X106133Y89203D01*
X106186Y89148D01*
X106241Y89095D01*
X106300Y89044D01*
X106360Y88997D01*
X106423Y88953D01*
X106488Y88912D01*
X106555Y88874D01*
X106623Y88839D01*
X106694Y88808D01*
X106765Y88781D01*
X106838Y88756D01*
X106912Y88736D01*
X106987Y88719D01*
X107063Y88706D01*
X107140Y88697D01*
X107216Y88691D01*
X107293Y88689D01*
X107293Y88688D02*
X109382Y88688D01*
X101324Y91821D02*
X101324Y101219D01*
X101324Y98086D02*
X98713Y98086D01*
X98636Y98084D01*
X98560Y98078D01*
X98483Y98069D01*
X98407Y98056D01*
X98333Y98039D01*
X98258Y98019D01*
X98185Y97994D01*
X98114Y97967D01*
X98043Y97936D01*
X97975Y97901D01*
X97908Y97863D01*
X97843Y97822D01*
X97780Y97778D01*
X97720Y97731D01*
X97661Y97680D01*
X97606Y97627D01*
X97553Y97572D01*
X97502Y97513D01*
X97455Y97453D01*
X97411Y97390D01*
X97370Y97325D01*
X97332Y97258D01*
X97297Y97190D01*
X97266Y97119D01*
X97239Y97048D01*
X97214Y96975D01*
X97194Y96901D01*
X97177Y96826D01*
X97164Y96750D01*
X97155Y96674D01*
X97149Y96597D01*
X97147Y96520D01*
X97147Y91821D01*
X93863Y98086D02*
X90730Y98086D01*
X92819Y101219D02*
X92819Y93387D01*
X92818Y93387D02*
X92816Y93310D01*
X92810Y93234D01*
X92801Y93157D01*
X92788Y93081D01*
X92771Y93006D01*
X92751Y92932D01*
X92726Y92859D01*
X92699Y92788D01*
X92668Y92717D01*
X92633Y92649D01*
X92595Y92582D01*
X92554Y92517D01*
X92510Y92454D01*
X92463Y92394D01*
X92412Y92335D01*
X92359Y92280D01*
X92304Y92227D01*
X92245Y92176D01*
X92185Y92129D01*
X92122Y92085D01*
X92057Y92044D01*
X91990Y92006D01*
X91922Y91971D01*
X91851Y91940D01*
X91780Y91913D01*
X91707Y91888D01*
X91633Y91868D01*
X91558Y91851D01*
X91482Y91838D01*
X91405Y91829D01*
X91329Y91823D01*
X91252Y91821D01*
X90730Y91821D01*
X86520Y95476D02*
X83909Y94432D01*
X86520Y95476D02*
X86586Y95504D01*
X86651Y95537D01*
X86714Y95572D01*
X86775Y95611D01*
X86834Y95653D01*
X86890Y95698D01*
X86944Y95746D01*
X86995Y95797D01*
X87044Y95850D01*
X87089Y95907D01*
X87132Y95965D01*
X87171Y96025D01*
X87208Y96088D01*
X87240Y96153D01*
X87269Y96219D01*
X87295Y96286D01*
X87317Y96355D01*
X87335Y96425D01*
X87350Y96496D01*
X87361Y96567D01*
X87368Y96639D01*
X87371Y96711D01*
X87370Y96783D01*
X87365Y96856D01*
X87357Y96927D01*
X87345Y96999D01*
X87329Y97069D01*
X87309Y97138D01*
X87285Y97207D01*
X87258Y97274D01*
X87228Y97339D01*
X87194Y97403D01*
X87156Y97465D01*
X87116Y97525D01*
X87072Y97582D01*
X87025Y97637D01*
X86975Y97690D01*
X86923Y97739D01*
X86868Y97786D01*
X86811Y97830D01*
X86751Y97871D01*
X86689Y97908D01*
X86625Y97943D01*
X86560Y97973D01*
X86493Y98001D01*
X86425Y98024D01*
X86355Y98044D01*
X86285Y98060D01*
X86214Y98073D01*
X86142Y98081D01*
X86070Y98086D01*
X85998Y98087D01*
X85997Y98086D02*
X85846Y98082D01*
X85695Y98074D01*
X85544Y98063D01*
X85393Y98047D01*
X85243Y98027D01*
X85093Y98004D01*
X84944Y97977D01*
X84796Y97946D01*
X84648Y97911D01*
X84502Y97873D01*
X84356Y97830D01*
X84212Y97784D01*
X84069Y97735D01*
X83927Y97682D01*
X83787Y97625D01*
X83648Y97564D01*
X83909Y94432D02*
X83843Y94404D01*
X83778Y94371D01*
X83715Y94336D01*
X83654Y94297D01*
X83595Y94255D01*
X83539Y94210D01*
X83485Y94162D01*
X83434Y94111D01*
X83385Y94058D01*
X83340Y94001D01*
X83297Y93943D01*
X83258Y93883D01*
X83221Y93820D01*
X83189Y93755D01*
X83160Y93689D01*
X83134Y93622D01*
X83112Y93553D01*
X83094Y93483D01*
X83079Y93412D01*
X83068Y93341D01*
X83061Y93269D01*
X83058Y93197D01*
X83059Y93125D01*
X83064Y93052D01*
X83072Y92981D01*
X83084Y92909D01*
X83100Y92839D01*
X83120Y92770D01*
X83144Y92701D01*
X83171Y92634D01*
X83201Y92569D01*
X83235Y92505D01*
X83273Y92443D01*
X83313Y92383D01*
X83357Y92326D01*
X83404Y92271D01*
X83454Y92218D01*
X83506Y92169D01*
X83561Y92122D01*
X83618Y92078D01*
X83678Y92037D01*
X83740Y92000D01*
X83804Y91965D01*
X83869Y91935D01*
X83936Y91907D01*
X84004Y91884D01*
X84074Y91864D01*
X84144Y91848D01*
X84215Y91835D01*
X84287Y91827D01*
X84359Y91822D01*
X84431Y91821D01*
X84641Y91826D01*
X84850Y91837D01*
X85059Y91852D01*
X85267Y91872D01*
X85475Y91898D01*
X85682Y91928D01*
X85889Y91963D01*
X86094Y92003D01*
X86299Y92047D01*
X86502Y92097D01*
X86705Y92151D01*
X86906Y92211D01*
X87105Y92274D01*
X87303Y92343D01*
X175070Y76581D02*
X177159Y76581D01*
X177248Y76583D01*
X177336Y76589D01*
X177424Y76598D01*
X177512Y76611D01*
X177599Y76628D01*
X177685Y76648D01*
X177770Y76673D01*
X177855Y76700D01*
X177938Y76732D01*
X178019Y76766D01*
X178099Y76805D01*
X178177Y76846D01*
X178254Y76891D01*
X178328Y76939D01*
X178401Y76990D01*
X178471Y77044D01*
X178538Y77102D01*
X178604Y77162D01*
X178666Y77224D01*
X178726Y77290D01*
X178784Y77357D01*
X178838Y77427D01*
X178889Y77500D01*
X178937Y77574D01*
X178982Y77651D01*
X179023Y77729D01*
X179062Y77809D01*
X179096Y77890D01*
X179128Y77973D01*
X179155Y78058D01*
X179180Y78143D01*
X179200Y78229D01*
X179217Y78316D01*
X179230Y78404D01*
X179239Y78492D01*
X179245Y78580D01*
X179247Y78669D01*
X179247Y83891D01*
X179245Y83980D01*
X179239Y84068D01*
X179230Y84156D01*
X179217Y84244D01*
X179200Y84331D01*
X179180Y84417D01*
X179155Y84502D01*
X179128Y84587D01*
X179096Y84670D01*
X179062Y84751D01*
X179023Y84831D01*
X178982Y84909D01*
X178937Y84986D01*
X178889Y85060D01*
X178838Y85133D01*
X178784Y85203D01*
X178726Y85270D01*
X178666Y85336D01*
X178604Y85398D01*
X178538Y85458D01*
X178471Y85516D01*
X178401Y85570D01*
X178328Y85621D01*
X178254Y85669D01*
X178177Y85714D01*
X178099Y85755D01*
X178019Y85794D01*
X177938Y85828D01*
X177855Y85860D01*
X177770Y85887D01*
X177685Y85912D01*
X177599Y85932D01*
X177512Y85949D01*
X177424Y85962D01*
X177336Y85971D01*
X177248Y85977D01*
X177159Y85979D01*
X175070Y85979D01*
X171689Y80758D02*
X171689Y78669D01*
X171689Y80758D02*
X171687Y80848D01*
X171681Y80937D01*
X171672Y81027D01*
X171658Y81116D01*
X171641Y81204D01*
X171620Y81291D01*
X171595Y81378D01*
X171566Y81463D01*
X171534Y81547D01*
X171499Y81629D01*
X171459Y81710D01*
X171417Y81789D01*
X171371Y81866D01*
X171321Y81941D01*
X171269Y82014D01*
X171213Y82085D01*
X171155Y82153D01*
X171093Y82218D01*
X171029Y82281D01*
X170962Y82341D01*
X170893Y82398D01*
X170821Y82452D01*
X170747Y82503D01*
X170671Y82551D01*
X170593Y82595D01*
X170513Y82636D01*
X170431Y82674D01*
X170348Y82708D01*
X170263Y82738D01*
X170177Y82765D01*
X170091Y82788D01*
X170003Y82807D01*
X169914Y82822D01*
X169825Y82834D01*
X169736Y82842D01*
X169646Y82846D01*
X169556Y82846D01*
X169466Y82842D01*
X169377Y82834D01*
X169288Y82822D01*
X169199Y82807D01*
X169111Y82788D01*
X169025Y82765D01*
X168939Y82738D01*
X168854Y82708D01*
X168771Y82674D01*
X168689Y82636D01*
X168609Y82595D01*
X168531Y82551D01*
X168455Y82503D01*
X168381Y82452D01*
X168309Y82398D01*
X168240Y82341D01*
X168173Y82281D01*
X168109Y82218D01*
X168047Y82153D01*
X167989Y82085D01*
X167933Y82014D01*
X167881Y81941D01*
X167831Y81866D01*
X167785Y81789D01*
X167743Y81710D01*
X167703Y81629D01*
X167668Y81547D01*
X167636Y81463D01*
X167607Y81378D01*
X167582Y81291D01*
X167561Y81204D01*
X167544Y81116D01*
X167530Y81027D01*
X167521Y80937D01*
X167515Y80848D01*
X167513Y80758D01*
X167512Y80758D02*
X167512Y78669D01*
X167513Y78669D02*
X167515Y78579D01*
X167521Y78490D01*
X167530Y78400D01*
X167544Y78311D01*
X167561Y78223D01*
X167582Y78136D01*
X167607Y78049D01*
X167636Y77964D01*
X167668Y77880D01*
X167703Y77798D01*
X167743Y77717D01*
X167785Y77638D01*
X167831Y77561D01*
X167881Y77486D01*
X167933Y77413D01*
X167989Y77342D01*
X168047Y77274D01*
X168109Y77209D01*
X168173Y77146D01*
X168240Y77086D01*
X168309Y77029D01*
X168381Y76975D01*
X168455Y76924D01*
X168531Y76876D01*
X168609Y76832D01*
X168689Y76791D01*
X168771Y76753D01*
X168854Y76719D01*
X168939Y76689D01*
X169025Y76662D01*
X169111Y76639D01*
X169199Y76620D01*
X169288Y76605D01*
X169377Y76593D01*
X169466Y76585D01*
X169556Y76581D01*
X169646Y76581D01*
X169736Y76585D01*
X169825Y76593D01*
X169914Y76605D01*
X170003Y76620D01*
X170091Y76639D01*
X170177Y76662D01*
X170263Y76689D01*
X170348Y76719D01*
X170431Y76753D01*
X170513Y76791D01*
X170593Y76832D01*
X170671Y76876D01*
X170747Y76924D01*
X170821Y76975D01*
X170893Y77029D01*
X170962Y77086D01*
X171029Y77146D01*
X171093Y77209D01*
X171155Y77274D01*
X171213Y77342D01*
X171269Y77413D01*
X171321Y77486D01*
X171371Y77561D01*
X171417Y77638D01*
X171459Y77717D01*
X171499Y77798D01*
X171534Y77880D01*
X171566Y77964D01*
X171595Y78049D01*
X171620Y78136D01*
X171641Y78223D01*
X171658Y78311D01*
X171672Y78400D01*
X171681Y78490D01*
X171687Y78579D01*
X171689Y78669D01*
X163459Y76581D02*
X163459Y82846D01*
X160849Y82846D01*
X160772Y82844D01*
X160696Y82838D01*
X160619Y82829D01*
X160543Y82816D01*
X160469Y82799D01*
X160394Y82779D01*
X160321Y82754D01*
X160250Y82727D01*
X160179Y82696D01*
X160111Y82661D01*
X160044Y82623D01*
X159979Y82582D01*
X159916Y82538D01*
X159856Y82491D01*
X159797Y82440D01*
X159742Y82387D01*
X159689Y82332D01*
X159638Y82273D01*
X159591Y82213D01*
X159547Y82150D01*
X159506Y82085D01*
X159468Y82018D01*
X159433Y81950D01*
X159402Y81879D01*
X159375Y81808D01*
X159350Y81735D01*
X159330Y81661D01*
X159313Y81586D01*
X159300Y81510D01*
X159291Y81434D01*
X159285Y81357D01*
X159283Y81280D01*
X159283Y76581D01*
X155999Y82846D02*
X152866Y82846D01*
X154954Y85979D02*
X154954Y78147D01*
X154952Y78070D01*
X154946Y77994D01*
X154937Y77917D01*
X154924Y77841D01*
X154907Y77766D01*
X154887Y77692D01*
X154862Y77619D01*
X154835Y77548D01*
X154804Y77477D01*
X154769Y77409D01*
X154731Y77342D01*
X154690Y77277D01*
X154646Y77214D01*
X154599Y77154D01*
X154548Y77095D01*
X154495Y77040D01*
X154440Y76987D01*
X154381Y76936D01*
X154321Y76889D01*
X154258Y76845D01*
X154193Y76804D01*
X154126Y76766D01*
X154058Y76731D01*
X153987Y76700D01*
X153916Y76673D01*
X153843Y76648D01*
X153769Y76628D01*
X153694Y76611D01*
X153618Y76598D01*
X153541Y76589D01*
X153465Y76583D01*
X153388Y76581D01*
X152866Y76581D01*
X149082Y76581D02*
X149082Y82846D01*
X145950Y82846D01*
X145950Y81802D01*
X143038Y80758D02*
X143038Y78669D01*
X143037Y80758D02*
X143035Y80848D01*
X143029Y80937D01*
X143020Y81027D01*
X143006Y81116D01*
X142989Y81204D01*
X142968Y81291D01*
X142943Y81378D01*
X142914Y81463D01*
X142882Y81547D01*
X142847Y81629D01*
X142807Y81710D01*
X142765Y81789D01*
X142719Y81866D01*
X142669Y81941D01*
X142617Y82014D01*
X142561Y82085D01*
X142503Y82153D01*
X142441Y82218D01*
X142377Y82281D01*
X142310Y82341D01*
X142241Y82398D01*
X142169Y82452D01*
X142095Y82503D01*
X142019Y82551D01*
X141941Y82595D01*
X141861Y82636D01*
X141779Y82674D01*
X141696Y82708D01*
X141611Y82738D01*
X141525Y82765D01*
X141439Y82788D01*
X141351Y82807D01*
X141262Y82822D01*
X141173Y82834D01*
X141084Y82842D01*
X140994Y82846D01*
X140904Y82846D01*
X140814Y82842D01*
X140725Y82834D01*
X140636Y82822D01*
X140547Y82807D01*
X140459Y82788D01*
X140373Y82765D01*
X140287Y82738D01*
X140202Y82708D01*
X140119Y82674D01*
X140037Y82636D01*
X139957Y82595D01*
X139879Y82551D01*
X139803Y82503D01*
X139729Y82452D01*
X139657Y82398D01*
X139588Y82341D01*
X139521Y82281D01*
X139457Y82218D01*
X139395Y82153D01*
X139337Y82085D01*
X139281Y82014D01*
X139229Y81941D01*
X139179Y81866D01*
X139133Y81789D01*
X139091Y81710D01*
X139051Y81629D01*
X139016Y81547D01*
X138984Y81463D01*
X138955Y81378D01*
X138930Y81291D01*
X138909Y81204D01*
X138892Y81116D01*
X138878Y81027D01*
X138869Y80937D01*
X138863Y80848D01*
X138861Y80758D01*
X138861Y78669D01*
X138863Y78579D01*
X138869Y78490D01*
X138878Y78400D01*
X138892Y78311D01*
X138909Y78223D01*
X138930Y78136D01*
X138955Y78049D01*
X138984Y77964D01*
X139016Y77880D01*
X139051Y77798D01*
X139091Y77717D01*
X139133Y77638D01*
X139179Y77561D01*
X139229Y77486D01*
X139281Y77413D01*
X139337Y77342D01*
X139395Y77274D01*
X139457Y77209D01*
X139521Y77146D01*
X139588Y77086D01*
X139657Y77029D01*
X139729Y76975D01*
X139803Y76924D01*
X139879Y76876D01*
X139957Y76832D01*
X140037Y76791D01*
X140119Y76753D01*
X140202Y76719D01*
X140287Y76689D01*
X140373Y76662D01*
X140459Y76639D01*
X140547Y76620D01*
X140636Y76605D01*
X140725Y76593D01*
X140814Y76585D01*
X140904Y76581D01*
X140994Y76581D01*
X141084Y76585D01*
X141173Y76593D01*
X141262Y76605D01*
X141351Y76620D01*
X141439Y76639D01*
X141525Y76662D01*
X141611Y76689D01*
X141696Y76719D01*
X141779Y76753D01*
X141861Y76791D01*
X141941Y76832D01*
X142019Y76876D01*
X142095Y76924D01*
X142169Y76975D01*
X142241Y77029D01*
X142310Y77086D01*
X142377Y77146D01*
X142441Y77209D01*
X142503Y77274D01*
X142561Y77342D01*
X142617Y77413D01*
X142669Y77486D01*
X142719Y77561D01*
X142765Y77638D01*
X142807Y77717D01*
X142847Y77798D01*
X142882Y77880D01*
X142914Y77964D01*
X142943Y78049D01*
X142968Y78136D01*
X142989Y78223D01*
X143006Y78311D01*
X143020Y78400D01*
X143029Y78490D01*
X143035Y78579D01*
X143037Y78669D01*
X134988Y78147D02*
X134988Y85979D01*
X134987Y78147D02*
X134985Y78070D01*
X134979Y77994D01*
X134970Y77917D01*
X134957Y77841D01*
X134940Y77766D01*
X134920Y77692D01*
X134895Y77619D01*
X134868Y77548D01*
X134837Y77477D01*
X134802Y77409D01*
X134764Y77342D01*
X134723Y77277D01*
X134679Y77214D01*
X134632Y77154D01*
X134581Y77095D01*
X134528Y77040D01*
X134473Y76987D01*
X134414Y76936D01*
X134354Y76889D01*
X134291Y76845D01*
X134226Y76804D01*
X134159Y76766D01*
X134091Y76731D01*
X134020Y76700D01*
X133949Y76673D01*
X133876Y76648D01*
X133802Y76628D01*
X133727Y76611D01*
X133651Y76598D01*
X133574Y76589D01*
X133498Y76583D01*
X133421Y76581D01*
X130111Y78147D02*
X130111Y85979D01*
X130111Y78147D02*
X130109Y78070D01*
X130103Y77994D01*
X130094Y77917D01*
X130081Y77841D01*
X130064Y77766D01*
X130044Y77692D01*
X130019Y77619D01*
X129992Y77548D01*
X129961Y77477D01*
X129926Y77409D01*
X129888Y77342D01*
X129847Y77277D01*
X129803Y77214D01*
X129756Y77154D01*
X129705Y77095D01*
X129652Y77040D01*
X129597Y76987D01*
X129538Y76936D01*
X129478Y76889D01*
X129415Y76845D01*
X129350Y76804D01*
X129283Y76766D01*
X129215Y76731D01*
X129144Y76700D01*
X129073Y76673D01*
X129000Y76648D01*
X128926Y76628D01*
X128851Y76611D01*
X128775Y76598D01*
X128698Y76589D01*
X128622Y76583D01*
X128545Y76581D01*
X123793Y76581D02*
X121183Y76581D01*
X123793Y76581D02*
X123870Y76583D01*
X123946Y76589D01*
X124023Y76598D01*
X124099Y76611D01*
X124174Y76628D01*
X124248Y76648D01*
X124321Y76673D01*
X124392Y76700D01*
X124463Y76731D01*
X124531Y76766D01*
X124598Y76804D01*
X124663Y76845D01*
X124726Y76889D01*
X124786Y76936D01*
X124845Y76987D01*
X124900Y77040D01*
X124953Y77095D01*
X125004Y77154D01*
X125051Y77214D01*
X125095Y77277D01*
X125136Y77342D01*
X125174Y77409D01*
X125209Y77477D01*
X125240Y77548D01*
X125267Y77619D01*
X125292Y77692D01*
X125312Y77766D01*
X125329Y77841D01*
X125342Y77917D01*
X125351Y77994D01*
X125357Y78070D01*
X125359Y78147D01*
X125360Y78147D02*
X125360Y80758D01*
X125359Y80758D02*
X125357Y80848D01*
X125351Y80937D01*
X125342Y81027D01*
X125328Y81116D01*
X125311Y81204D01*
X125290Y81291D01*
X125265Y81378D01*
X125236Y81463D01*
X125204Y81547D01*
X125169Y81629D01*
X125129Y81710D01*
X125087Y81789D01*
X125041Y81866D01*
X124991Y81941D01*
X124939Y82014D01*
X124883Y82085D01*
X124825Y82153D01*
X124763Y82218D01*
X124699Y82281D01*
X124632Y82341D01*
X124563Y82398D01*
X124491Y82452D01*
X124417Y82503D01*
X124341Y82551D01*
X124263Y82595D01*
X124183Y82636D01*
X124101Y82674D01*
X124018Y82708D01*
X123933Y82738D01*
X123847Y82765D01*
X123761Y82788D01*
X123673Y82807D01*
X123584Y82822D01*
X123495Y82834D01*
X123406Y82842D01*
X123316Y82846D01*
X123226Y82846D01*
X123136Y82842D01*
X123047Y82834D01*
X122958Y82822D01*
X122869Y82807D01*
X122781Y82788D01*
X122695Y82765D01*
X122609Y82738D01*
X122524Y82708D01*
X122441Y82674D01*
X122359Y82636D01*
X122279Y82595D01*
X122201Y82551D01*
X122125Y82503D01*
X122051Y82452D01*
X121979Y82398D01*
X121910Y82341D01*
X121843Y82281D01*
X121779Y82218D01*
X121717Y82153D01*
X121659Y82085D01*
X121603Y82014D01*
X121551Y81941D01*
X121501Y81866D01*
X121455Y81789D01*
X121413Y81710D01*
X121373Y81629D01*
X121338Y81547D01*
X121306Y81463D01*
X121277Y81378D01*
X121252Y81291D01*
X121231Y81204D01*
X121214Y81116D01*
X121200Y81027D01*
X121191Y80937D01*
X121185Y80848D01*
X121183Y80758D01*
X121183Y79714D01*
X125360Y79714D01*
X117079Y76581D02*
X117079Y82846D01*
X113946Y82846D01*
X113946Y81802D01*
X105653Y84413D02*
X105653Y76581D01*
X105652Y84413D02*
X105650Y84490D01*
X105644Y84566D01*
X105635Y84643D01*
X105622Y84719D01*
X105605Y84794D01*
X105585Y84868D01*
X105560Y84941D01*
X105533Y85012D01*
X105502Y85083D01*
X105467Y85151D01*
X105429Y85218D01*
X105388Y85283D01*
X105344Y85346D01*
X105297Y85406D01*
X105246Y85465D01*
X105193Y85520D01*
X105138Y85573D01*
X105079Y85624D01*
X105019Y85671D01*
X104956Y85715D01*
X104891Y85756D01*
X104824Y85794D01*
X104756Y85829D01*
X104685Y85860D01*
X104614Y85887D01*
X104541Y85912D01*
X104467Y85932D01*
X104392Y85949D01*
X104316Y85962D01*
X104239Y85971D01*
X104163Y85977D01*
X104086Y85979D01*
X103564Y85979D01*
X103564Y82846D02*
X106697Y82846D01*
X100976Y80758D02*
X100976Y78669D01*
X100975Y80758D02*
X100973Y80848D01*
X100967Y80937D01*
X100958Y81027D01*
X100944Y81116D01*
X100927Y81204D01*
X100906Y81291D01*
X100881Y81378D01*
X100852Y81463D01*
X100820Y81547D01*
X100785Y81629D01*
X100745Y81710D01*
X100703Y81789D01*
X100657Y81866D01*
X100607Y81941D01*
X100555Y82014D01*
X100499Y82085D01*
X100441Y82153D01*
X100379Y82218D01*
X100315Y82281D01*
X100248Y82341D01*
X100179Y82398D01*
X100107Y82452D01*
X100033Y82503D01*
X99957Y82551D01*
X99879Y82595D01*
X99799Y82636D01*
X99717Y82674D01*
X99634Y82708D01*
X99549Y82738D01*
X99463Y82765D01*
X99377Y82788D01*
X99289Y82807D01*
X99200Y82822D01*
X99111Y82834D01*
X99022Y82842D01*
X98932Y82846D01*
X98842Y82846D01*
X98752Y82842D01*
X98663Y82834D01*
X98574Y82822D01*
X98485Y82807D01*
X98397Y82788D01*
X98311Y82765D01*
X98225Y82738D01*
X98140Y82708D01*
X98057Y82674D01*
X97975Y82636D01*
X97895Y82595D01*
X97817Y82551D01*
X97741Y82503D01*
X97667Y82452D01*
X97595Y82398D01*
X97526Y82341D01*
X97459Y82281D01*
X97395Y82218D01*
X97333Y82153D01*
X97275Y82085D01*
X97219Y82014D01*
X97167Y81941D01*
X97117Y81866D01*
X97071Y81789D01*
X97029Y81710D01*
X96989Y81629D01*
X96954Y81547D01*
X96922Y81463D01*
X96893Y81378D01*
X96868Y81291D01*
X96847Y81204D01*
X96830Y81116D01*
X96816Y81027D01*
X96807Y80937D01*
X96801Y80848D01*
X96799Y80758D01*
X96799Y78669D01*
X96801Y78579D01*
X96807Y78490D01*
X96816Y78400D01*
X96830Y78311D01*
X96847Y78223D01*
X96868Y78136D01*
X96893Y78049D01*
X96922Y77964D01*
X96954Y77880D01*
X96989Y77798D01*
X97029Y77717D01*
X97071Y77638D01*
X97117Y77561D01*
X97167Y77486D01*
X97219Y77413D01*
X97275Y77342D01*
X97333Y77274D01*
X97395Y77209D01*
X97459Y77146D01*
X97526Y77086D01*
X97595Y77029D01*
X97667Y76975D01*
X97741Y76924D01*
X97817Y76876D01*
X97895Y76832D01*
X97975Y76791D01*
X98057Y76753D01*
X98140Y76719D01*
X98225Y76689D01*
X98311Y76662D01*
X98397Y76639D01*
X98485Y76620D01*
X98574Y76605D01*
X98663Y76593D01*
X98752Y76585D01*
X98842Y76581D01*
X98932Y76581D01*
X99022Y76585D01*
X99111Y76593D01*
X99200Y76605D01*
X99289Y76620D01*
X99377Y76639D01*
X99463Y76662D01*
X99549Y76689D01*
X99634Y76719D01*
X99717Y76753D01*
X99799Y76791D01*
X99879Y76832D01*
X99957Y76876D01*
X100033Y76924D01*
X100107Y76975D01*
X100179Y77029D01*
X100248Y77086D01*
X100315Y77146D01*
X100379Y77209D01*
X100441Y77274D01*
X100499Y77342D01*
X100555Y77413D01*
X100607Y77486D01*
X100657Y77561D01*
X100703Y77638D01*
X100745Y77717D01*
X100785Y77798D01*
X100820Y77880D01*
X100852Y77964D01*
X100881Y78049D01*
X100906Y78136D01*
X100927Y78223D01*
X100944Y78311D01*
X100958Y78400D01*
X100967Y78490D01*
X100973Y78579D01*
X100975Y78669D01*
X92695Y76581D02*
X92695Y82846D01*
X89562Y82846D01*
X89562Y81802D01*
X81324Y85979D02*
X81324Y76581D01*
X81324Y85979D02*
X78714Y85979D01*
X78613Y85977D01*
X78512Y85971D01*
X78411Y85961D01*
X78311Y85948D01*
X78211Y85930D01*
X78112Y85909D01*
X78014Y85883D01*
X77917Y85854D01*
X77821Y85822D01*
X77727Y85785D01*
X77634Y85745D01*
X77542Y85701D01*
X77453Y85654D01*
X77365Y85603D01*
X77279Y85549D01*
X77196Y85492D01*
X77114Y85432D01*
X77036Y85368D01*
X76959Y85302D01*
X76886Y85232D01*
X76815Y85160D01*
X76747Y85085D01*
X76682Y85007D01*
X76620Y84927D01*
X76561Y84845D01*
X76505Y84760D01*
X76453Y84674D01*
X76404Y84585D01*
X76358Y84494D01*
X76317Y84402D01*
X76278Y84308D01*
X76244Y84213D01*
X76213Y84117D01*
X76186Y84019D01*
X76162Y83921D01*
X76143Y83821D01*
X76127Y83721D01*
X76115Y83621D01*
X76107Y83520D01*
X76103Y83419D01*
X76103Y83317D01*
X76107Y83216D01*
X76115Y83115D01*
X76127Y83015D01*
X76143Y82915D01*
X76162Y82815D01*
X76186Y82717D01*
X76213Y82619D01*
X76244Y82523D01*
X76278Y82428D01*
X76317Y82334D01*
X76358Y82242D01*
X76404Y82151D01*
X76453Y82063D01*
X76505Y81976D01*
X76561Y81891D01*
X76620Y81809D01*
X76682Y81729D01*
X76747Y81651D01*
X76815Y81576D01*
X76886Y81504D01*
X76959Y81434D01*
X77036Y81368D01*
X77114Y81304D01*
X77196Y81244D01*
X77279Y81187D01*
X77365Y81133D01*
X77453Y81082D01*
X77542Y81035D01*
X77634Y80991D01*
X77727Y80951D01*
X77821Y80914D01*
X77917Y80882D01*
X78014Y80853D01*
X78112Y80827D01*
X78211Y80806D01*
X78311Y80788D01*
X78411Y80775D01*
X78512Y80765D01*
X78613Y80759D01*
X78714Y80757D01*
X78714Y80758D02*
X81324Y80758D01*
X78192Y80758D02*
X76103Y76581D01*
X70175Y76581D02*
X68086Y76581D01*
X70175Y76581D02*
X70264Y76583D01*
X70352Y76589D01*
X70440Y76598D01*
X70528Y76611D01*
X70615Y76628D01*
X70701Y76648D01*
X70786Y76673D01*
X70871Y76700D01*
X70954Y76732D01*
X71035Y76766D01*
X71115Y76805D01*
X71193Y76846D01*
X71270Y76891D01*
X71344Y76939D01*
X71417Y76990D01*
X71487Y77044D01*
X71554Y77102D01*
X71620Y77162D01*
X71682Y77224D01*
X71742Y77290D01*
X71800Y77357D01*
X71854Y77427D01*
X71905Y77500D01*
X71953Y77574D01*
X71998Y77651D01*
X72039Y77729D01*
X72078Y77809D01*
X72112Y77890D01*
X72144Y77973D01*
X72171Y78058D01*
X72196Y78143D01*
X72216Y78229D01*
X72233Y78316D01*
X72246Y78404D01*
X72255Y78492D01*
X72261Y78580D01*
X72263Y78669D01*
X72263Y83891D01*
X72261Y83980D01*
X72255Y84068D01*
X72246Y84156D01*
X72233Y84244D01*
X72216Y84331D01*
X72196Y84417D01*
X72171Y84502D01*
X72144Y84587D01*
X72112Y84670D01*
X72078Y84751D01*
X72039Y84831D01*
X71998Y84909D01*
X71953Y84986D01*
X71905Y85060D01*
X71854Y85133D01*
X71800Y85203D01*
X71742Y85270D01*
X71682Y85336D01*
X71620Y85398D01*
X71554Y85458D01*
X71487Y85516D01*
X71417Y85570D01*
X71344Y85621D01*
X71270Y85669D01*
X71193Y85714D01*
X71115Y85755D01*
X71035Y85794D01*
X70954Y85828D01*
X70871Y85860D01*
X70786Y85887D01*
X70701Y85912D01*
X70615Y85932D01*
X70528Y85949D01*
X70440Y85962D01*
X70352Y85971D01*
X70264Y85977D01*
X70175Y85979D01*
X68086Y85979D01*
X59478Y82846D02*
X59478Y73448D01*
X59478Y82846D02*
X56867Y82846D01*
X56790Y82844D01*
X56714Y82838D01*
X56637Y82829D01*
X56561Y82816D01*
X56487Y82799D01*
X56412Y82779D01*
X56339Y82754D01*
X56268Y82727D01*
X56197Y82696D01*
X56129Y82661D01*
X56062Y82623D01*
X55997Y82582D01*
X55934Y82538D01*
X55874Y82491D01*
X55815Y82440D01*
X55760Y82387D01*
X55707Y82332D01*
X55656Y82273D01*
X55609Y82213D01*
X55565Y82150D01*
X55524Y82085D01*
X55486Y82018D01*
X55451Y81950D01*
X55420Y81879D01*
X55393Y81808D01*
X55368Y81735D01*
X55348Y81661D01*
X55331Y81586D01*
X55318Y81510D01*
X55309Y81434D01*
X55303Y81357D01*
X55301Y81280D01*
X55301Y78147D01*
X55303Y78070D01*
X55309Y77994D01*
X55318Y77917D01*
X55331Y77841D01*
X55348Y77766D01*
X55368Y77692D01*
X55393Y77619D01*
X55420Y77548D01*
X55451Y77477D01*
X55486Y77409D01*
X55524Y77342D01*
X55565Y77277D01*
X55609Y77214D01*
X55656Y77154D01*
X55707Y77095D01*
X55760Y77040D01*
X55815Y76987D01*
X55874Y76936D01*
X55934Y76889D01*
X55997Y76845D01*
X56062Y76804D01*
X56129Y76766D01*
X56197Y76731D01*
X56268Y76700D01*
X56339Y76673D01*
X56412Y76648D01*
X56487Y76628D01*
X56562Y76611D01*
X56637Y76598D01*
X56714Y76589D01*
X56790Y76583D01*
X56867Y76581D01*
X59478Y76581D01*
X51473Y78147D02*
X51473Y85979D01*
X51473Y78147D02*
X51471Y78070D01*
X51465Y77994D01*
X51456Y77917D01*
X51443Y77841D01*
X51426Y77766D01*
X51406Y77692D01*
X51381Y77619D01*
X51354Y77548D01*
X51323Y77477D01*
X51288Y77409D01*
X51250Y77342D01*
X51209Y77277D01*
X51165Y77214D01*
X51118Y77154D01*
X51067Y77095D01*
X51014Y77040D01*
X50959Y76987D01*
X50900Y76936D01*
X50840Y76889D01*
X50777Y76845D01*
X50712Y76804D01*
X50645Y76766D01*
X50577Y76731D01*
X50506Y76700D01*
X50435Y76673D01*
X50362Y76648D01*
X50288Y76628D01*
X50213Y76611D01*
X50137Y76598D01*
X50060Y76589D01*
X49984Y76583D01*
X49907Y76581D01*
X44940Y80236D02*
X42591Y80236D01*
X44940Y80235D02*
X45024Y80233D01*
X45109Y80227D01*
X45192Y80217D01*
X45276Y80204D01*
X45358Y80186D01*
X45440Y80165D01*
X45521Y80140D01*
X45600Y80112D01*
X45678Y80079D01*
X45754Y80043D01*
X45829Y80004D01*
X45902Y79961D01*
X45973Y79915D01*
X46041Y79866D01*
X46107Y79814D01*
X46171Y79758D01*
X46232Y79700D01*
X46290Y79639D01*
X46346Y79575D01*
X46398Y79509D01*
X46447Y79441D01*
X46493Y79370D01*
X46536Y79297D01*
X46575Y79222D01*
X46611Y79146D01*
X46644Y79068D01*
X46672Y78989D01*
X46697Y78908D01*
X46718Y78826D01*
X46736Y78744D01*
X46749Y78660D01*
X46759Y78577D01*
X46765Y78492D01*
X46767Y78408D01*
X46765Y78324D01*
X46759Y78239D01*
X46749Y78156D01*
X46736Y78072D01*
X46718Y77990D01*
X46697Y77908D01*
X46672Y77827D01*
X46644Y77748D01*
X46611Y77670D01*
X46575Y77594D01*
X46536Y77519D01*
X46493Y77446D01*
X46447Y77375D01*
X46398Y77307D01*
X46346Y77241D01*
X46290Y77177D01*
X46232Y77116D01*
X46171Y77058D01*
X46107Y77002D01*
X46041Y76950D01*
X45973Y76901D01*
X45902Y76855D01*
X45829Y76812D01*
X45754Y76773D01*
X45678Y76737D01*
X45600Y76704D01*
X45521Y76676D01*
X45440Y76651D01*
X45358Y76630D01*
X45276Y76612D01*
X45192Y76599D01*
X45109Y76589D01*
X45024Y76583D01*
X44940Y76581D01*
X42591Y76581D01*
X42591Y81280D01*
X42593Y81357D01*
X42599Y81433D01*
X42608Y81510D01*
X42621Y81586D01*
X42638Y81661D01*
X42658Y81735D01*
X42683Y81808D01*
X42710Y81879D01*
X42741Y81950D01*
X42776Y82018D01*
X42814Y82085D01*
X42855Y82150D01*
X42899Y82213D01*
X42946Y82273D01*
X42997Y82332D01*
X43050Y82387D01*
X43105Y82440D01*
X43164Y82491D01*
X43224Y82538D01*
X43287Y82582D01*
X43352Y82623D01*
X43419Y82661D01*
X43487Y82696D01*
X43558Y82727D01*
X43629Y82754D01*
X43702Y82779D01*
X43777Y82799D01*
X43852Y82816D01*
X43927Y82829D01*
X44004Y82838D01*
X44080Y82844D01*
X44157Y82846D01*
X46245Y82846D01*
X38187Y82846D02*
X38187Y76581D01*
X38187Y82846D02*
X35577Y82846D01*
X35500Y82844D01*
X35424Y82838D01*
X35347Y82829D01*
X35271Y82816D01*
X35197Y82799D01*
X35122Y82779D01*
X35049Y82754D01*
X34978Y82727D01*
X34907Y82696D01*
X34839Y82661D01*
X34772Y82623D01*
X34707Y82582D01*
X34644Y82538D01*
X34584Y82491D01*
X34525Y82440D01*
X34470Y82387D01*
X34417Y82332D01*
X34366Y82273D01*
X34319Y82213D01*
X34275Y82150D01*
X34234Y82085D01*
X34196Y82018D01*
X34161Y81950D01*
X34130Y81879D01*
X34103Y81808D01*
X34078Y81735D01*
X34058Y81661D01*
X34041Y81586D01*
X34028Y81510D01*
X34019Y81434D01*
X34013Y81357D01*
X34011Y81280D01*
X34011Y76581D01*
X28392Y76581D02*
X25781Y76581D01*
X28392Y76581D02*
X28469Y76583D01*
X28545Y76589D01*
X28622Y76598D01*
X28698Y76611D01*
X28773Y76628D01*
X28847Y76648D01*
X28920Y76673D01*
X28991Y76700D01*
X29062Y76731D01*
X29130Y76766D01*
X29197Y76804D01*
X29262Y76845D01*
X29325Y76889D01*
X29385Y76936D01*
X29444Y76987D01*
X29499Y77040D01*
X29552Y77095D01*
X29603Y77154D01*
X29650Y77214D01*
X29694Y77277D01*
X29735Y77342D01*
X29773Y77409D01*
X29808Y77477D01*
X29839Y77548D01*
X29866Y77619D01*
X29891Y77692D01*
X29911Y77766D01*
X29928Y77841D01*
X29941Y77917D01*
X29950Y77994D01*
X29956Y78070D01*
X29958Y78147D01*
X29958Y80758D01*
X29957Y80758D02*
X29955Y80848D01*
X29949Y80937D01*
X29940Y81027D01*
X29926Y81116D01*
X29909Y81204D01*
X29888Y81291D01*
X29863Y81378D01*
X29834Y81463D01*
X29802Y81547D01*
X29767Y81629D01*
X29727Y81710D01*
X29685Y81789D01*
X29639Y81866D01*
X29589Y81941D01*
X29537Y82014D01*
X29481Y82085D01*
X29423Y82153D01*
X29361Y82218D01*
X29297Y82281D01*
X29230Y82341D01*
X29161Y82398D01*
X29089Y82452D01*
X29015Y82503D01*
X28939Y82551D01*
X28861Y82595D01*
X28781Y82636D01*
X28699Y82674D01*
X28616Y82708D01*
X28531Y82738D01*
X28445Y82765D01*
X28359Y82788D01*
X28271Y82807D01*
X28182Y82822D01*
X28093Y82834D01*
X28004Y82842D01*
X27914Y82846D01*
X27824Y82846D01*
X27734Y82842D01*
X27645Y82834D01*
X27556Y82822D01*
X27467Y82807D01*
X27379Y82788D01*
X27293Y82765D01*
X27207Y82738D01*
X27122Y82708D01*
X27039Y82674D01*
X26957Y82636D01*
X26877Y82595D01*
X26799Y82551D01*
X26723Y82503D01*
X26649Y82452D01*
X26577Y82398D01*
X26508Y82341D01*
X26441Y82281D01*
X26377Y82218D01*
X26315Y82153D01*
X26257Y82085D01*
X26201Y82014D01*
X26149Y81941D01*
X26099Y81866D01*
X26053Y81789D01*
X26011Y81710D01*
X25971Y81629D01*
X25936Y81547D01*
X25904Y81463D01*
X25875Y81378D01*
X25850Y81291D01*
X25829Y81204D01*
X25812Y81116D01*
X25798Y81027D01*
X25789Y80937D01*
X25783Y80848D01*
X25781Y80758D01*
X25781Y79714D01*
X29958Y79714D01*
X31496Y231081D02*
X40894Y231081D01*
X40894Y233692D01*
X40892Y233793D01*
X40886Y233894D01*
X40876Y233995D01*
X40863Y234095D01*
X40845Y234195D01*
X40824Y234294D01*
X40798Y234392D01*
X40769Y234489D01*
X40737Y234585D01*
X40700Y234679D01*
X40660Y234772D01*
X40616Y234864D01*
X40569Y234953D01*
X40518Y235041D01*
X40464Y235127D01*
X40407Y235210D01*
X40347Y235292D01*
X40283Y235370D01*
X40217Y235447D01*
X40147Y235520D01*
X40075Y235591D01*
X40000Y235659D01*
X39922Y235724D01*
X39842Y235786D01*
X39760Y235845D01*
X39675Y235901D01*
X39589Y235953D01*
X39500Y236002D01*
X39409Y236048D01*
X39317Y236089D01*
X39223Y236128D01*
X39128Y236162D01*
X39032Y236193D01*
X38934Y236220D01*
X38836Y236244D01*
X38736Y236263D01*
X38636Y236279D01*
X38536Y236291D01*
X38435Y236299D01*
X38334Y236303D01*
X38232Y236303D01*
X38131Y236299D01*
X38030Y236291D01*
X37930Y236279D01*
X37830Y236263D01*
X37730Y236244D01*
X37632Y236220D01*
X37534Y236193D01*
X37438Y236162D01*
X37343Y236128D01*
X37249Y236089D01*
X37157Y236048D01*
X37066Y236002D01*
X36978Y235953D01*
X36891Y235901D01*
X36806Y235845D01*
X36724Y235786D01*
X36644Y235724D01*
X36566Y235659D01*
X36491Y235591D01*
X36419Y235520D01*
X36349Y235447D01*
X36283Y235370D01*
X36219Y235292D01*
X36159Y235210D01*
X36102Y235127D01*
X36048Y235041D01*
X35997Y234953D01*
X35950Y234864D01*
X35906Y234772D01*
X35866Y234679D01*
X35829Y234585D01*
X35797Y234489D01*
X35768Y234392D01*
X35742Y234294D01*
X35721Y234195D01*
X35703Y234095D01*
X35690Y233995D01*
X35680Y233894D01*
X35674Y233793D01*
X35672Y233692D01*
X35673Y233692D02*
X35673Y231081D01*
X35673Y234214D02*
X31496Y236303D01*
X31496Y240491D02*
X31496Y244668D01*
X31496Y240491D02*
X40894Y240491D01*
X40894Y244668D01*
X36717Y243623D02*
X36717Y240491D01*
X40894Y248398D02*
X31496Y248398D01*
X40894Y248398D02*
X40894Y251008D01*
X40892Y251108D01*
X40886Y251208D01*
X40877Y251307D01*
X40863Y251407D01*
X40846Y251505D01*
X40825Y251603D01*
X40801Y251700D01*
X40772Y251796D01*
X40740Y251891D01*
X40705Y251984D01*
X40666Y252076D01*
X40623Y252167D01*
X40577Y252255D01*
X40527Y252342D01*
X40475Y252427D01*
X40419Y252510D01*
X40360Y252591D01*
X40297Y252669D01*
X40232Y252745D01*
X40164Y252819D01*
X40094Y252889D01*
X40020Y252957D01*
X39944Y253022D01*
X39866Y253085D01*
X39785Y253144D01*
X39702Y253200D01*
X39617Y253252D01*
X39530Y253302D01*
X39442Y253348D01*
X39351Y253391D01*
X39259Y253430D01*
X39166Y253465D01*
X39071Y253497D01*
X38975Y253526D01*
X38878Y253550D01*
X38780Y253571D01*
X38682Y253588D01*
X38582Y253602D01*
X38483Y253611D01*
X38383Y253617D01*
X38283Y253619D01*
X34107Y253619D01*
X34007Y253617D01*
X33907Y253611D01*
X33808Y253602D01*
X33708Y253588D01*
X33610Y253571D01*
X33512Y253550D01*
X33415Y253526D01*
X33319Y253497D01*
X33224Y253465D01*
X33131Y253430D01*
X33039Y253391D01*
X32948Y253348D01*
X32860Y253302D01*
X32773Y253252D01*
X32688Y253200D01*
X32605Y253144D01*
X32524Y253085D01*
X32446Y253022D01*
X32370Y252957D01*
X32296Y252889D01*
X32226Y252819D01*
X32158Y252745D01*
X32093Y252669D01*
X32030Y252591D01*
X31971Y252510D01*
X31915Y252427D01*
X31863Y252342D01*
X31813Y252255D01*
X31767Y252167D01*
X31724Y252076D01*
X31685Y251984D01*
X31650Y251891D01*
X31618Y251796D01*
X31589Y251700D01*
X31565Y251603D01*
X31544Y251505D01*
X31527Y251407D01*
X31513Y251307D01*
X31504Y251208D01*
X31498Y251108D01*
X31496Y251008D01*
X31496Y248398D01*
X116092Y218567D02*
X116092Y217001D01*
X116092Y218567D02*
X110871Y218567D01*
X110871Y215435D01*
X110873Y215346D01*
X110879Y215258D01*
X110888Y215170D01*
X110901Y215082D01*
X110918Y214995D01*
X110938Y214909D01*
X110963Y214824D01*
X110990Y214739D01*
X111022Y214656D01*
X111056Y214575D01*
X111095Y214495D01*
X111136Y214417D01*
X111181Y214340D01*
X111229Y214266D01*
X111280Y214193D01*
X111334Y214123D01*
X111392Y214056D01*
X111452Y213990D01*
X111514Y213928D01*
X111580Y213868D01*
X111647Y213810D01*
X111717Y213756D01*
X111790Y213705D01*
X111864Y213657D01*
X111941Y213612D01*
X112019Y213571D01*
X112099Y213532D01*
X112180Y213498D01*
X112263Y213466D01*
X112348Y213439D01*
X112433Y213414D01*
X112519Y213394D01*
X112606Y213377D01*
X112694Y213364D01*
X112782Y213355D01*
X112870Y213349D01*
X112959Y213347D01*
X112959Y213346D02*
X118181Y213346D01*
X118181Y213347D02*
X118272Y213349D01*
X118363Y213355D01*
X118454Y213365D01*
X118544Y213379D01*
X118633Y213396D01*
X118721Y213418D01*
X118809Y213444D01*
X118895Y213473D01*
X118980Y213506D01*
X119063Y213543D01*
X119145Y213583D01*
X119225Y213627D01*
X119303Y213674D01*
X119379Y213725D01*
X119452Y213778D01*
X119523Y213835D01*
X119592Y213896D01*
X119657Y213959D01*
X119720Y214024D01*
X119780Y214093D01*
X119838Y214164D01*
X119891Y214237D01*
X119942Y214313D01*
X119989Y214391D01*
X120033Y214471D01*
X120073Y214553D01*
X120110Y214636D01*
X120143Y214721D01*
X120172Y214807D01*
X120198Y214895D01*
X120220Y214983D01*
X120237Y215072D01*
X120251Y215162D01*
X120261Y215253D01*
X120267Y215344D01*
X120269Y215435D01*
X120269Y218567D01*
X120269Y223157D02*
X110871Y223157D01*
X120269Y223157D02*
X120269Y225767D01*
X120267Y225868D01*
X120261Y225969D01*
X120251Y226070D01*
X120238Y226170D01*
X120220Y226270D01*
X120199Y226369D01*
X120173Y226467D01*
X120144Y226564D01*
X120112Y226660D01*
X120075Y226754D01*
X120035Y226847D01*
X119991Y226939D01*
X119944Y227028D01*
X119893Y227116D01*
X119839Y227202D01*
X119782Y227285D01*
X119722Y227367D01*
X119658Y227445D01*
X119592Y227522D01*
X119522Y227595D01*
X119450Y227666D01*
X119375Y227734D01*
X119297Y227799D01*
X119217Y227861D01*
X119135Y227920D01*
X119050Y227976D01*
X118964Y228028D01*
X118875Y228077D01*
X118784Y228123D01*
X118692Y228164D01*
X118598Y228203D01*
X118503Y228237D01*
X118407Y228268D01*
X118309Y228295D01*
X118211Y228319D01*
X118111Y228338D01*
X118011Y228354D01*
X117911Y228366D01*
X117810Y228374D01*
X117709Y228378D01*
X117607Y228378D01*
X117506Y228374D01*
X117405Y228366D01*
X117305Y228354D01*
X117205Y228338D01*
X117105Y228319D01*
X117007Y228295D01*
X116909Y228268D01*
X116813Y228237D01*
X116718Y228203D01*
X116624Y228164D01*
X116532Y228123D01*
X116441Y228077D01*
X116353Y228028D01*
X116266Y227976D01*
X116181Y227920D01*
X116099Y227861D01*
X116019Y227799D01*
X115941Y227734D01*
X115866Y227666D01*
X115794Y227595D01*
X115724Y227522D01*
X115658Y227445D01*
X115594Y227367D01*
X115534Y227285D01*
X115477Y227202D01*
X115423Y227116D01*
X115372Y227028D01*
X115325Y226939D01*
X115281Y226847D01*
X115241Y226754D01*
X115204Y226660D01*
X115172Y226564D01*
X115143Y226467D01*
X115117Y226369D01*
X115096Y226270D01*
X115078Y226170D01*
X115065Y226070D01*
X115055Y225969D01*
X115049Y225868D01*
X115047Y225767D01*
X115048Y225767D02*
X115048Y223157D01*
X115048Y226289D02*
X110871Y228378D01*
X110871Y232566D02*
X110871Y236743D01*
X110871Y232566D02*
X120269Y232566D01*
X120269Y236743D01*
X116092Y235699D02*
X116092Y232566D01*
X110871Y240491D02*
X110871Y244668D01*
X110871Y240491D02*
X120269Y240491D01*
X120269Y244668D01*
X116092Y243623D02*
X116092Y240491D01*
X120269Y248398D02*
X110871Y248398D01*
X110871Y253619D02*
X120269Y248398D01*
X120269Y253619D02*
X110871Y253619D01*
X63119Y324231D02*
X63119Y333629D01*
X58942Y333629D01*
X58942Y329452D02*
X63119Y329452D01*
X55194Y333629D02*
X55194Y324231D01*
X51017Y324231D01*
X48114Y324231D02*
X44981Y333629D01*
X41849Y324231D01*
X42632Y326581D02*
X47331Y326581D01*
X35620Y324231D02*
X35531Y324233D01*
X35443Y324239D01*
X35355Y324248D01*
X35267Y324261D01*
X35180Y324278D01*
X35094Y324298D01*
X35009Y324323D01*
X34924Y324350D01*
X34841Y324382D01*
X34760Y324416D01*
X34680Y324455D01*
X34602Y324496D01*
X34525Y324541D01*
X34451Y324589D01*
X34378Y324640D01*
X34308Y324694D01*
X34241Y324752D01*
X34175Y324812D01*
X34113Y324874D01*
X34053Y324940D01*
X33995Y325007D01*
X33941Y325077D01*
X33890Y325150D01*
X33842Y325224D01*
X33797Y325301D01*
X33756Y325379D01*
X33717Y325459D01*
X33683Y325540D01*
X33651Y325623D01*
X33624Y325708D01*
X33599Y325793D01*
X33579Y325879D01*
X33562Y325966D01*
X33549Y326054D01*
X33540Y326142D01*
X33534Y326230D01*
X33532Y326319D01*
X35620Y324231D02*
X35749Y324233D01*
X35878Y324239D01*
X36007Y324248D01*
X36135Y324261D01*
X36263Y324278D01*
X36390Y324299D01*
X36517Y324323D01*
X36643Y324351D01*
X36768Y324383D01*
X36892Y324418D01*
X37015Y324457D01*
X37137Y324500D01*
X37257Y324546D01*
X37376Y324596D01*
X37494Y324649D01*
X37610Y324705D01*
X37724Y324765D01*
X37837Y324828D01*
X37947Y324895D01*
X38056Y324964D01*
X38162Y325037D01*
X38267Y325113D01*
X38369Y325192D01*
X38469Y325274D01*
X38566Y325358D01*
X38661Y325446D01*
X38753Y325536D01*
X38491Y331541D02*
X38489Y331630D01*
X38483Y331718D01*
X38474Y331806D01*
X38461Y331894D01*
X38444Y331981D01*
X38424Y332067D01*
X38399Y332152D01*
X38372Y332237D01*
X38340Y332320D01*
X38306Y332401D01*
X38267Y332481D01*
X38226Y332559D01*
X38181Y332636D01*
X38133Y332710D01*
X38082Y332783D01*
X38028Y332853D01*
X37970Y332920D01*
X37910Y332986D01*
X37848Y333048D01*
X37782Y333108D01*
X37715Y333166D01*
X37645Y333220D01*
X37572Y333271D01*
X37498Y333319D01*
X37421Y333364D01*
X37343Y333405D01*
X37263Y333444D01*
X37182Y333478D01*
X37099Y333510D01*
X37014Y333537D01*
X36929Y333562D01*
X36843Y333582D01*
X36756Y333599D01*
X36668Y333612D01*
X36580Y333621D01*
X36492Y333627D01*
X36403Y333629D01*
X36283Y333627D01*
X36163Y333622D01*
X36044Y333612D01*
X35924Y333600D01*
X35805Y333583D01*
X35687Y333563D01*
X35569Y333539D01*
X35453Y333512D01*
X35337Y333481D01*
X35222Y333447D01*
X35108Y333409D01*
X34995Y333367D01*
X34884Y333322D01*
X34774Y333274D01*
X34666Y333223D01*
X34559Y333168D01*
X34454Y333110D01*
X34351Y333048D01*
X34250Y332984D01*
X34150Y332916D01*
X34053Y332846D01*
X37448Y329714D02*
X37526Y329762D01*
X37602Y329814D01*
X37675Y329868D01*
X37746Y329926D01*
X37815Y329987D01*
X37881Y330051D01*
X37944Y330118D01*
X38004Y330187D01*
X38061Y330259D01*
X38115Y330333D01*
X38165Y330410D01*
X38213Y330489D01*
X38256Y330569D01*
X38297Y330652D01*
X38333Y330736D01*
X38366Y330821D01*
X38395Y330908D01*
X38421Y330997D01*
X38443Y331086D01*
X38460Y331176D01*
X38474Y331266D01*
X38484Y331358D01*
X38490Y331449D01*
X38492Y331541D01*
X34576Y328146D02*
X34498Y328098D01*
X34422Y328046D01*
X34349Y327992D01*
X34278Y327934D01*
X34209Y327873D01*
X34143Y327809D01*
X34080Y327742D01*
X34020Y327673D01*
X33963Y327601D01*
X33909Y327527D01*
X33859Y327450D01*
X33811Y327371D01*
X33768Y327291D01*
X33727Y327208D01*
X33691Y327124D01*
X33658Y327039D01*
X33629Y326952D01*
X33603Y326863D01*
X33581Y326774D01*
X33564Y326684D01*
X33550Y326594D01*
X33540Y326502D01*
X33534Y326411D01*
X33532Y326319D01*
X34576Y328147D02*
X37447Y329713D01*
X29609Y333629D02*
X29609Y324231D01*
X29609Y329452D02*
X24388Y329452D01*
X24388Y333629D02*
X24388Y324231D01*
X146798Y326319D02*
X146800Y326230D01*
X146806Y326142D01*
X146815Y326054D01*
X146828Y325966D01*
X146845Y325879D01*
X146865Y325793D01*
X146890Y325708D01*
X146917Y325623D01*
X146949Y325540D01*
X146983Y325459D01*
X147022Y325379D01*
X147063Y325301D01*
X147108Y325224D01*
X147156Y325150D01*
X147207Y325077D01*
X147261Y325007D01*
X147319Y324940D01*
X147379Y324874D01*
X147441Y324812D01*
X147507Y324752D01*
X147574Y324694D01*
X147644Y324640D01*
X147717Y324589D01*
X147791Y324541D01*
X147868Y324496D01*
X147946Y324455D01*
X148026Y324416D01*
X148107Y324382D01*
X148190Y324350D01*
X148275Y324323D01*
X148360Y324298D01*
X148446Y324278D01*
X148533Y324261D01*
X148621Y324248D01*
X148709Y324239D01*
X148797Y324233D01*
X148886Y324231D01*
X149015Y324233D01*
X149144Y324239D01*
X149273Y324248D01*
X149401Y324261D01*
X149529Y324278D01*
X149656Y324299D01*
X149783Y324323D01*
X149909Y324351D01*
X150034Y324383D01*
X150158Y324418D01*
X150281Y324457D01*
X150403Y324500D01*
X150523Y324546D01*
X150642Y324596D01*
X150760Y324649D01*
X150876Y324705D01*
X150990Y324765D01*
X151103Y324828D01*
X151213Y324895D01*
X151322Y324964D01*
X151428Y325037D01*
X151533Y325113D01*
X151635Y325192D01*
X151735Y325274D01*
X151832Y325358D01*
X151927Y325446D01*
X152019Y325536D01*
X151758Y331541D02*
X151756Y331630D01*
X151750Y331718D01*
X151741Y331806D01*
X151728Y331894D01*
X151711Y331981D01*
X151691Y332067D01*
X151666Y332152D01*
X151639Y332237D01*
X151607Y332320D01*
X151573Y332401D01*
X151534Y332481D01*
X151493Y332559D01*
X151448Y332636D01*
X151400Y332710D01*
X151349Y332783D01*
X151295Y332853D01*
X151237Y332920D01*
X151177Y332986D01*
X151115Y333048D01*
X151049Y333108D01*
X150982Y333166D01*
X150912Y333220D01*
X150839Y333271D01*
X150765Y333319D01*
X150688Y333364D01*
X150610Y333405D01*
X150530Y333444D01*
X150449Y333478D01*
X150366Y333510D01*
X150281Y333537D01*
X150196Y333562D01*
X150110Y333582D01*
X150023Y333599D01*
X149935Y333612D01*
X149847Y333621D01*
X149759Y333627D01*
X149670Y333629D01*
X149550Y333627D01*
X149430Y333622D01*
X149311Y333612D01*
X149191Y333600D01*
X149072Y333583D01*
X148954Y333563D01*
X148836Y333539D01*
X148720Y333512D01*
X148604Y333481D01*
X148489Y333447D01*
X148375Y333409D01*
X148262Y333367D01*
X148151Y333322D01*
X148041Y333274D01*
X147933Y333223D01*
X147826Y333168D01*
X147721Y333110D01*
X147618Y333048D01*
X147517Y332984D01*
X147417Y332916D01*
X147320Y332846D01*
X150714Y329714D02*
X150792Y329762D01*
X150868Y329814D01*
X150941Y329868D01*
X151012Y329926D01*
X151081Y329987D01*
X151147Y330051D01*
X151210Y330118D01*
X151270Y330187D01*
X151327Y330259D01*
X151381Y330333D01*
X151431Y330410D01*
X151479Y330489D01*
X151522Y330569D01*
X151563Y330652D01*
X151599Y330736D01*
X151632Y330821D01*
X151661Y330908D01*
X151687Y330997D01*
X151709Y331086D01*
X151726Y331176D01*
X151740Y331266D01*
X151750Y331358D01*
X151756Y331449D01*
X151758Y331541D01*
X147842Y328146D02*
X147764Y328098D01*
X147688Y328046D01*
X147615Y327992D01*
X147544Y327934D01*
X147475Y327873D01*
X147409Y327809D01*
X147346Y327742D01*
X147286Y327673D01*
X147229Y327601D01*
X147175Y327527D01*
X147125Y327450D01*
X147077Y327371D01*
X147034Y327291D01*
X146993Y327208D01*
X146957Y327124D01*
X146924Y327039D01*
X146895Y326952D01*
X146869Y326863D01*
X146847Y326774D01*
X146830Y326684D01*
X146816Y326594D01*
X146806Y326502D01*
X146800Y326411D01*
X146798Y326319D01*
X147842Y328147D02*
X150714Y329713D01*
X143180Y331018D02*
X143180Y326842D01*
X143180Y331018D02*
X143178Y331119D01*
X143172Y331220D01*
X143162Y331321D01*
X143149Y331421D01*
X143131Y331521D01*
X143110Y331620D01*
X143084Y331718D01*
X143055Y331815D01*
X143023Y331911D01*
X142986Y332005D01*
X142946Y332098D01*
X142902Y332190D01*
X142855Y332279D01*
X142804Y332367D01*
X142750Y332453D01*
X142693Y332536D01*
X142633Y332618D01*
X142569Y332696D01*
X142503Y332773D01*
X142433Y332846D01*
X142361Y332917D01*
X142286Y332985D01*
X142208Y333050D01*
X142128Y333112D01*
X142046Y333171D01*
X141961Y333227D01*
X141875Y333279D01*
X141786Y333328D01*
X141695Y333374D01*
X141603Y333415D01*
X141509Y333454D01*
X141414Y333488D01*
X141318Y333519D01*
X141220Y333546D01*
X141122Y333570D01*
X141022Y333589D01*
X140922Y333605D01*
X140822Y333617D01*
X140721Y333625D01*
X140620Y333629D01*
X140518Y333629D01*
X140417Y333625D01*
X140316Y333617D01*
X140216Y333605D01*
X140116Y333589D01*
X140016Y333570D01*
X139918Y333546D01*
X139820Y333519D01*
X139724Y333488D01*
X139629Y333454D01*
X139535Y333415D01*
X139443Y333374D01*
X139352Y333328D01*
X139264Y333279D01*
X139177Y333227D01*
X139092Y333171D01*
X139010Y333112D01*
X138930Y333050D01*
X138852Y332985D01*
X138777Y332917D01*
X138705Y332846D01*
X138635Y332773D01*
X138569Y332696D01*
X138505Y332618D01*
X138445Y332536D01*
X138388Y332453D01*
X138334Y332367D01*
X138283Y332279D01*
X138236Y332190D01*
X138192Y332098D01*
X138152Y332005D01*
X138115Y331911D01*
X138083Y331815D01*
X138054Y331718D01*
X138028Y331620D01*
X138007Y331521D01*
X137989Y331421D01*
X137976Y331321D01*
X137966Y331220D01*
X137960Y331119D01*
X137958Y331018D01*
X137959Y331018D02*
X137959Y326842D01*
X137958Y326842D02*
X137960Y326741D01*
X137966Y326640D01*
X137976Y326539D01*
X137989Y326439D01*
X138007Y326339D01*
X138028Y326240D01*
X138054Y326142D01*
X138083Y326045D01*
X138115Y325949D01*
X138152Y325855D01*
X138192Y325762D01*
X138236Y325670D01*
X138283Y325581D01*
X138334Y325493D01*
X138388Y325407D01*
X138445Y325324D01*
X138505Y325242D01*
X138569Y325164D01*
X138635Y325087D01*
X138705Y325014D01*
X138777Y324943D01*
X138852Y324875D01*
X138930Y324810D01*
X139010Y324748D01*
X139092Y324689D01*
X139177Y324633D01*
X139264Y324581D01*
X139352Y324532D01*
X139443Y324486D01*
X139535Y324445D01*
X139629Y324406D01*
X139724Y324372D01*
X139820Y324341D01*
X139918Y324314D01*
X140016Y324290D01*
X140116Y324271D01*
X140216Y324255D01*
X140316Y324243D01*
X140417Y324235D01*
X140518Y324231D01*
X140620Y324231D01*
X140721Y324235D01*
X140822Y324243D01*
X140922Y324255D01*
X141022Y324271D01*
X141122Y324290D01*
X141220Y324314D01*
X141318Y324341D01*
X141414Y324372D01*
X141509Y324406D01*
X141603Y324445D01*
X141695Y324486D01*
X141786Y324532D01*
X141874Y324581D01*
X141961Y324633D01*
X142046Y324689D01*
X142128Y324748D01*
X142208Y324810D01*
X142286Y324875D01*
X142361Y324943D01*
X142433Y325014D01*
X142503Y325087D01*
X142569Y325164D01*
X142633Y325242D01*
X142693Y325324D01*
X142750Y325407D01*
X142804Y325493D01*
X142855Y325581D01*
X142902Y325670D01*
X142946Y325762D01*
X142986Y325855D01*
X143023Y325949D01*
X143055Y326045D01*
X143084Y326142D01*
X143110Y326240D01*
X143131Y326339D01*
X143149Y326439D01*
X143162Y326539D01*
X143172Y326640D01*
X143178Y326741D01*
X143180Y326842D01*
X133714Y324231D02*
X133714Y333629D01*
X133714Y324231D02*
X129537Y324231D01*
X125329Y324231D02*
X125329Y333629D01*
X126374Y324231D02*
X124285Y324231D01*
X124285Y333629D02*
X126374Y333629D01*
X120320Y333629D02*
X120320Y324231D01*
X120320Y333629D02*
X117709Y333629D01*
X117609Y333627D01*
X117509Y333621D01*
X117410Y333612D01*
X117310Y333598D01*
X117212Y333581D01*
X117114Y333560D01*
X117017Y333536D01*
X116921Y333507D01*
X116826Y333475D01*
X116733Y333440D01*
X116641Y333401D01*
X116550Y333358D01*
X116462Y333312D01*
X116375Y333262D01*
X116290Y333210D01*
X116207Y333154D01*
X116126Y333095D01*
X116048Y333032D01*
X115972Y332967D01*
X115898Y332899D01*
X115828Y332829D01*
X115760Y332755D01*
X115695Y332679D01*
X115632Y332601D01*
X115573Y332520D01*
X115517Y332437D01*
X115465Y332352D01*
X115415Y332265D01*
X115369Y332177D01*
X115326Y332086D01*
X115287Y331994D01*
X115252Y331901D01*
X115220Y331806D01*
X115191Y331710D01*
X115167Y331613D01*
X115146Y331515D01*
X115129Y331417D01*
X115115Y331317D01*
X115106Y331218D01*
X115100Y331118D01*
X115098Y331018D01*
X115099Y331018D02*
X115099Y326842D01*
X115098Y326842D02*
X115100Y326742D01*
X115106Y326642D01*
X115115Y326543D01*
X115129Y326443D01*
X115146Y326345D01*
X115167Y326247D01*
X115191Y326150D01*
X115220Y326054D01*
X115252Y325959D01*
X115287Y325866D01*
X115326Y325774D01*
X115369Y325683D01*
X115415Y325595D01*
X115465Y325508D01*
X115517Y325423D01*
X115573Y325340D01*
X115632Y325259D01*
X115695Y325181D01*
X115760Y325105D01*
X115828Y325031D01*
X115898Y324961D01*
X115972Y324893D01*
X116048Y324828D01*
X116126Y324765D01*
X116207Y324706D01*
X116290Y324650D01*
X116375Y324598D01*
X116462Y324548D01*
X116550Y324502D01*
X116641Y324459D01*
X116733Y324420D01*
X116826Y324385D01*
X116921Y324353D01*
X117017Y324324D01*
X117114Y324300D01*
X117212Y324279D01*
X117310Y324262D01*
X117410Y324248D01*
X117509Y324239D01*
X117609Y324233D01*
X117709Y324231D01*
X120320Y324231D01*
D12*
X76200Y342900D02*
X76200Y263525D01*
X76200Y342900D02*
X6350Y342900D01*
X6350Y263525D01*
X76200Y263525D01*
X193675Y263525D01*
X193675Y342900D01*
X76200Y342900D01*
D11*
X60071Y216114D02*
X69469Y214026D01*
X66336Y218202D02*
X60071Y216114D01*
X60071Y220291D02*
X66336Y218202D01*
X69469Y222379D02*
X60071Y220291D01*
X60071Y226260D02*
X69469Y226260D01*
X65292Y226260D02*
X65292Y231481D01*
X69469Y231481D02*
X60071Y231481D01*
X60071Y236490D02*
X69469Y236490D01*
X60071Y235446D02*
X60071Y237535D01*
X69469Y237535D02*
X69469Y235446D01*
X69469Y243196D02*
X60071Y243196D01*
X69469Y240585D02*
X69469Y245807D01*
X60071Y249442D02*
X60071Y253619D01*
X60071Y249442D02*
X69469Y249442D01*
X69469Y253619D01*
X65292Y252575D02*
X65292Y249442D01*
X85471Y231081D02*
X94869Y231081D01*
X94869Y233692D01*
X94867Y233793D01*
X94861Y233894D01*
X94851Y233995D01*
X94838Y234095D01*
X94820Y234195D01*
X94799Y234294D01*
X94773Y234392D01*
X94744Y234489D01*
X94712Y234585D01*
X94675Y234679D01*
X94635Y234772D01*
X94591Y234864D01*
X94544Y234953D01*
X94493Y235041D01*
X94439Y235127D01*
X94382Y235210D01*
X94322Y235292D01*
X94258Y235370D01*
X94192Y235447D01*
X94122Y235520D01*
X94050Y235591D01*
X93975Y235659D01*
X93897Y235724D01*
X93817Y235786D01*
X93735Y235845D01*
X93650Y235901D01*
X93564Y235953D01*
X93475Y236002D01*
X93384Y236048D01*
X93292Y236089D01*
X93198Y236128D01*
X93103Y236162D01*
X93007Y236193D01*
X92909Y236220D01*
X92811Y236244D01*
X92711Y236263D01*
X92611Y236279D01*
X92511Y236291D01*
X92410Y236299D01*
X92309Y236303D01*
X92207Y236303D01*
X92106Y236299D01*
X92005Y236291D01*
X91905Y236279D01*
X91805Y236263D01*
X91705Y236244D01*
X91607Y236220D01*
X91509Y236193D01*
X91413Y236162D01*
X91318Y236128D01*
X91224Y236089D01*
X91132Y236048D01*
X91041Y236002D01*
X90953Y235953D01*
X90866Y235901D01*
X90781Y235845D01*
X90699Y235786D01*
X90619Y235724D01*
X90541Y235659D01*
X90466Y235591D01*
X90394Y235520D01*
X90324Y235447D01*
X90258Y235370D01*
X90194Y235292D01*
X90134Y235210D01*
X90077Y235127D01*
X90023Y235041D01*
X89972Y234953D01*
X89925Y234864D01*
X89881Y234772D01*
X89841Y234679D01*
X89804Y234585D01*
X89772Y234489D01*
X89743Y234392D01*
X89717Y234294D01*
X89696Y234195D01*
X89678Y234095D01*
X89665Y233995D01*
X89655Y233894D01*
X89649Y233793D01*
X89647Y233692D01*
X89648Y233692D02*
X89648Y231081D01*
X89648Y234214D02*
X85471Y236303D01*
X85471Y240491D02*
X85471Y244668D01*
X85471Y240491D02*
X94869Y240491D01*
X94869Y244668D01*
X90692Y243623D02*
X90692Y240491D01*
X94869Y248398D02*
X85471Y248398D01*
X94869Y248398D02*
X94869Y251008D01*
X94867Y251108D01*
X94861Y251208D01*
X94852Y251307D01*
X94838Y251407D01*
X94821Y251505D01*
X94800Y251603D01*
X94776Y251700D01*
X94747Y251796D01*
X94715Y251891D01*
X94680Y251984D01*
X94641Y252076D01*
X94598Y252167D01*
X94552Y252255D01*
X94502Y252342D01*
X94450Y252427D01*
X94394Y252510D01*
X94335Y252591D01*
X94272Y252669D01*
X94207Y252745D01*
X94139Y252819D01*
X94069Y252889D01*
X93995Y252957D01*
X93919Y253022D01*
X93841Y253085D01*
X93760Y253144D01*
X93677Y253200D01*
X93592Y253252D01*
X93505Y253302D01*
X93417Y253348D01*
X93326Y253391D01*
X93234Y253430D01*
X93141Y253465D01*
X93046Y253497D01*
X92950Y253526D01*
X92853Y253550D01*
X92755Y253571D01*
X92657Y253588D01*
X92557Y253602D01*
X92458Y253611D01*
X92358Y253617D01*
X92258Y253619D01*
X88082Y253619D01*
X87982Y253617D01*
X87882Y253611D01*
X87783Y253602D01*
X87683Y253588D01*
X87585Y253571D01*
X87487Y253550D01*
X87390Y253526D01*
X87294Y253497D01*
X87199Y253465D01*
X87106Y253430D01*
X87014Y253391D01*
X86923Y253348D01*
X86835Y253302D01*
X86748Y253252D01*
X86663Y253200D01*
X86580Y253144D01*
X86499Y253085D01*
X86421Y253022D01*
X86345Y252957D01*
X86271Y252889D01*
X86201Y252819D01*
X86133Y252745D01*
X86068Y252669D01*
X86005Y252591D01*
X85946Y252510D01*
X85890Y252427D01*
X85838Y252342D01*
X85788Y252255D01*
X85742Y252167D01*
X85699Y252076D01*
X85660Y251984D01*
X85625Y251891D01*
X85593Y251796D01*
X85564Y251700D01*
X85540Y251603D01*
X85519Y251505D01*
X85502Y251407D01*
X85488Y251307D01*
X85479Y251208D01*
X85473Y251108D01*
X85471Y251008D01*
X85471Y248398D01*
X161671Y216114D02*
X171069Y214026D01*
X167936Y218202D02*
X161671Y216114D01*
X161671Y220291D02*
X167936Y218202D01*
X171069Y222379D02*
X161671Y220291D01*
X161671Y226260D02*
X171069Y226260D01*
X166892Y226260D02*
X166892Y231481D01*
X171069Y231481D02*
X161671Y231481D01*
X161671Y236490D02*
X171069Y236490D01*
X161671Y235446D02*
X161671Y237535D01*
X171069Y237535D02*
X171069Y235446D01*
X171069Y243196D02*
X161671Y243196D01*
X171069Y240585D02*
X171069Y245807D01*
X161671Y249442D02*
X161671Y253619D01*
X161671Y249442D02*
X171069Y249442D01*
X171069Y253619D01*
X166892Y252575D02*
X166892Y249442D01*
X145669Y214026D02*
X136271Y216114D01*
X142536Y218202D01*
X136271Y220291D01*
X145669Y222379D01*
X145669Y226260D02*
X136271Y226260D01*
X141492Y226260D02*
X141492Y231481D01*
X145669Y231481D02*
X136271Y231481D01*
X136271Y236490D02*
X145669Y236490D01*
X136271Y235446D02*
X136271Y237535D01*
X145669Y237535D02*
X145669Y235446D01*
X145669Y243196D02*
X136271Y243196D01*
X145669Y240585D02*
X145669Y245807D01*
X136271Y249442D02*
X136271Y253619D01*
X136271Y249442D02*
X145669Y249442D01*
X145669Y253619D01*
X141492Y252575D02*
X141492Y249442D01*
X180679Y305661D02*
X186944Y305661D01*
X186944Y280261D02*
X180679Y280261D01*
X183811Y283393D02*
X183811Y277128D01*
X56769Y48006D02*
X53636Y48006D01*
X53547Y48008D01*
X53459Y48014D01*
X53371Y48023D01*
X53283Y48036D01*
X53196Y48053D01*
X53110Y48073D01*
X53025Y48098D01*
X52940Y48125D01*
X52857Y48157D01*
X52776Y48191D01*
X52696Y48230D01*
X52618Y48271D01*
X52541Y48316D01*
X52467Y48364D01*
X52394Y48415D01*
X52324Y48469D01*
X52257Y48527D01*
X52191Y48587D01*
X52129Y48649D01*
X52069Y48715D01*
X52011Y48782D01*
X51957Y48852D01*
X51906Y48925D01*
X51858Y48999D01*
X51813Y49076D01*
X51772Y49154D01*
X51733Y49234D01*
X51699Y49315D01*
X51667Y49398D01*
X51640Y49483D01*
X51615Y49568D01*
X51595Y49654D01*
X51578Y49741D01*
X51565Y49829D01*
X51556Y49917D01*
X51550Y50005D01*
X51548Y50094D01*
X51548Y51139D01*
X51550Y51228D01*
X51556Y51316D01*
X51565Y51404D01*
X51578Y51492D01*
X51595Y51579D01*
X51615Y51665D01*
X51640Y51750D01*
X51667Y51835D01*
X51699Y51918D01*
X51733Y51999D01*
X51772Y52079D01*
X51813Y52157D01*
X51858Y52234D01*
X51906Y52308D01*
X51957Y52381D01*
X52011Y52451D01*
X52069Y52518D01*
X52129Y52584D01*
X52191Y52646D01*
X52257Y52706D01*
X52324Y52764D01*
X52394Y52818D01*
X52467Y52869D01*
X52541Y52917D01*
X52618Y52962D01*
X52696Y53003D01*
X52776Y53042D01*
X52857Y53076D01*
X52940Y53108D01*
X53025Y53135D01*
X53110Y53160D01*
X53196Y53180D01*
X53283Y53197D01*
X53371Y53210D01*
X53459Y53219D01*
X53547Y53225D01*
X53636Y53227D01*
X56769Y53227D01*
X56769Y57404D01*
X51548Y57404D01*
X48147Y57404D02*
X45015Y48006D01*
X41882Y57404D01*
X108698Y53227D02*
X110264Y53227D01*
X108698Y53227D02*
X108698Y48006D01*
X111831Y48006D01*
X111920Y48008D01*
X112008Y48014D01*
X112096Y48023D01*
X112184Y48036D01*
X112271Y48053D01*
X112357Y48073D01*
X112442Y48098D01*
X112527Y48125D01*
X112610Y48157D01*
X112691Y48191D01*
X112771Y48230D01*
X112849Y48271D01*
X112926Y48316D01*
X113000Y48364D01*
X113073Y48415D01*
X113143Y48469D01*
X113210Y48527D01*
X113276Y48587D01*
X113338Y48649D01*
X113398Y48715D01*
X113456Y48782D01*
X113510Y48852D01*
X113561Y48925D01*
X113609Y48999D01*
X113654Y49076D01*
X113695Y49154D01*
X113734Y49234D01*
X113768Y49315D01*
X113800Y49398D01*
X113827Y49483D01*
X113852Y49568D01*
X113872Y49654D01*
X113889Y49741D01*
X113902Y49829D01*
X113911Y49917D01*
X113917Y50005D01*
X113919Y50094D01*
X113919Y55316D01*
X113917Y55405D01*
X113911Y55493D01*
X113902Y55581D01*
X113889Y55669D01*
X113872Y55756D01*
X113852Y55842D01*
X113827Y55927D01*
X113800Y56012D01*
X113768Y56095D01*
X113734Y56176D01*
X113695Y56256D01*
X113654Y56334D01*
X113609Y56411D01*
X113561Y56485D01*
X113510Y56558D01*
X113456Y56628D01*
X113398Y56695D01*
X113338Y56761D01*
X113276Y56823D01*
X113210Y56883D01*
X113143Y56941D01*
X113073Y56995D01*
X113000Y57046D01*
X112926Y57094D01*
X112849Y57139D01*
X112771Y57180D01*
X112691Y57219D01*
X112610Y57253D01*
X112527Y57285D01*
X112442Y57312D01*
X112357Y57337D01*
X112271Y57357D01*
X112184Y57374D01*
X112096Y57387D01*
X112008Y57396D01*
X111920Y57402D01*
X111831Y57404D01*
X108698Y57404D01*
X104165Y57404D02*
X104165Y48006D01*
X98944Y48006D02*
X104165Y57404D01*
X98944Y57404D02*
X98944Y48006D01*
X94412Y48006D02*
X94412Y57404D01*
X91801Y57404D01*
X91701Y57402D01*
X91601Y57396D01*
X91502Y57387D01*
X91402Y57373D01*
X91304Y57356D01*
X91206Y57335D01*
X91109Y57311D01*
X91013Y57282D01*
X90918Y57250D01*
X90825Y57215D01*
X90733Y57176D01*
X90642Y57133D01*
X90554Y57087D01*
X90467Y57037D01*
X90382Y56985D01*
X90299Y56929D01*
X90218Y56870D01*
X90140Y56807D01*
X90064Y56742D01*
X89990Y56674D01*
X89920Y56604D01*
X89852Y56530D01*
X89787Y56454D01*
X89724Y56376D01*
X89665Y56295D01*
X89609Y56212D01*
X89557Y56127D01*
X89507Y56040D01*
X89461Y55952D01*
X89418Y55861D01*
X89379Y55769D01*
X89344Y55676D01*
X89312Y55581D01*
X89283Y55485D01*
X89259Y55388D01*
X89238Y55290D01*
X89221Y55192D01*
X89207Y55092D01*
X89198Y54993D01*
X89192Y54893D01*
X89190Y54793D01*
X89191Y54793D02*
X89191Y50617D01*
X89190Y50617D02*
X89192Y50517D01*
X89198Y50417D01*
X89207Y50318D01*
X89221Y50218D01*
X89238Y50120D01*
X89259Y50022D01*
X89283Y49925D01*
X89312Y49829D01*
X89344Y49734D01*
X89379Y49641D01*
X89418Y49549D01*
X89461Y49458D01*
X89507Y49370D01*
X89557Y49283D01*
X89609Y49198D01*
X89665Y49115D01*
X89724Y49034D01*
X89787Y48956D01*
X89852Y48880D01*
X89920Y48806D01*
X89990Y48736D01*
X90064Y48668D01*
X90140Y48603D01*
X90218Y48540D01*
X90299Y48481D01*
X90382Y48425D01*
X90467Y48373D01*
X90554Y48323D01*
X90642Y48277D01*
X90733Y48234D01*
X90825Y48195D01*
X90918Y48160D01*
X91013Y48128D01*
X91109Y48099D01*
X91206Y48075D01*
X91304Y48054D01*
X91402Y48037D01*
X91502Y48023D01*
X91601Y48014D01*
X91701Y48008D01*
X91801Y48006D01*
X94412Y48006D01*
X169023Y50094D02*
X169025Y50005D01*
X169031Y49917D01*
X169040Y49829D01*
X169053Y49741D01*
X169070Y49654D01*
X169090Y49568D01*
X169115Y49483D01*
X169142Y49398D01*
X169174Y49315D01*
X169208Y49234D01*
X169247Y49154D01*
X169288Y49076D01*
X169333Y48999D01*
X169381Y48925D01*
X169432Y48852D01*
X169486Y48782D01*
X169544Y48715D01*
X169604Y48649D01*
X169666Y48587D01*
X169732Y48527D01*
X169799Y48469D01*
X169869Y48415D01*
X169942Y48364D01*
X170016Y48316D01*
X170093Y48271D01*
X170171Y48230D01*
X170251Y48191D01*
X170332Y48157D01*
X170415Y48125D01*
X170500Y48098D01*
X170585Y48073D01*
X170671Y48053D01*
X170758Y48036D01*
X170846Y48023D01*
X170934Y48014D01*
X171022Y48008D01*
X171111Y48006D01*
X171240Y48008D01*
X171369Y48014D01*
X171498Y48023D01*
X171626Y48036D01*
X171754Y48053D01*
X171881Y48074D01*
X172008Y48098D01*
X172134Y48126D01*
X172259Y48158D01*
X172383Y48193D01*
X172506Y48232D01*
X172628Y48275D01*
X172748Y48321D01*
X172867Y48371D01*
X172985Y48424D01*
X173101Y48480D01*
X173215Y48540D01*
X173328Y48603D01*
X173438Y48670D01*
X173547Y48739D01*
X173653Y48812D01*
X173758Y48888D01*
X173860Y48967D01*
X173960Y49049D01*
X174057Y49133D01*
X174152Y49221D01*
X174244Y49311D01*
X173983Y55316D02*
X173981Y55405D01*
X173975Y55493D01*
X173966Y55581D01*
X173953Y55669D01*
X173936Y55756D01*
X173916Y55842D01*
X173891Y55927D01*
X173864Y56012D01*
X173832Y56095D01*
X173798Y56176D01*
X173759Y56256D01*
X173718Y56334D01*
X173673Y56411D01*
X173625Y56485D01*
X173574Y56558D01*
X173520Y56628D01*
X173462Y56695D01*
X173402Y56761D01*
X173340Y56823D01*
X173274Y56883D01*
X173207Y56941D01*
X173137Y56995D01*
X173064Y57046D01*
X172990Y57094D01*
X172913Y57139D01*
X172835Y57180D01*
X172755Y57219D01*
X172674Y57253D01*
X172591Y57285D01*
X172506Y57312D01*
X172421Y57337D01*
X172335Y57357D01*
X172248Y57374D01*
X172160Y57387D01*
X172072Y57396D01*
X171984Y57402D01*
X171895Y57404D01*
X171775Y57402D01*
X171655Y57397D01*
X171536Y57387D01*
X171416Y57375D01*
X171297Y57358D01*
X171179Y57338D01*
X171061Y57314D01*
X170945Y57287D01*
X170829Y57256D01*
X170714Y57222D01*
X170600Y57184D01*
X170487Y57142D01*
X170376Y57097D01*
X170266Y57049D01*
X170158Y56998D01*
X170051Y56943D01*
X169946Y56885D01*
X169843Y56823D01*
X169742Y56759D01*
X169642Y56691D01*
X169545Y56621D01*
X172939Y53489D02*
X173017Y53537D01*
X173093Y53589D01*
X173166Y53643D01*
X173237Y53701D01*
X173306Y53762D01*
X173372Y53826D01*
X173435Y53893D01*
X173495Y53962D01*
X173552Y54034D01*
X173606Y54108D01*
X173656Y54185D01*
X173704Y54264D01*
X173747Y54344D01*
X173788Y54427D01*
X173824Y54511D01*
X173857Y54596D01*
X173886Y54683D01*
X173912Y54772D01*
X173934Y54861D01*
X173951Y54951D01*
X173965Y55041D01*
X173975Y55133D01*
X173981Y55224D01*
X173983Y55316D01*
X170067Y51921D02*
X169989Y51873D01*
X169913Y51821D01*
X169840Y51767D01*
X169769Y51709D01*
X169700Y51648D01*
X169634Y51584D01*
X169571Y51517D01*
X169511Y51448D01*
X169454Y51376D01*
X169400Y51302D01*
X169350Y51225D01*
X169302Y51146D01*
X169259Y51066D01*
X169218Y50983D01*
X169182Y50899D01*
X169149Y50814D01*
X169120Y50727D01*
X169094Y50638D01*
X169072Y50549D01*
X169055Y50459D01*
X169041Y50369D01*
X169031Y50277D01*
X169025Y50186D01*
X169023Y50094D01*
X170067Y51922D02*
X172939Y53488D01*
X164623Y57404D02*
X164623Y48006D01*
X165667Y48006D02*
X163579Y48006D01*
X163579Y57404D02*
X165667Y57404D01*
X155959Y53227D02*
X154393Y53227D01*
X154393Y48006D01*
X157525Y48006D01*
X157614Y48008D01*
X157702Y48014D01*
X157790Y48023D01*
X157878Y48036D01*
X157965Y48053D01*
X158051Y48073D01*
X158136Y48098D01*
X158221Y48125D01*
X158304Y48157D01*
X158385Y48191D01*
X158465Y48230D01*
X158543Y48271D01*
X158620Y48316D01*
X158694Y48364D01*
X158767Y48415D01*
X158837Y48469D01*
X158904Y48527D01*
X158970Y48587D01*
X159032Y48649D01*
X159092Y48715D01*
X159150Y48782D01*
X159204Y48852D01*
X159255Y48925D01*
X159303Y48999D01*
X159348Y49076D01*
X159389Y49154D01*
X159428Y49234D01*
X159462Y49315D01*
X159494Y49398D01*
X159521Y49483D01*
X159546Y49568D01*
X159566Y49654D01*
X159583Y49741D01*
X159596Y49829D01*
X159605Y49917D01*
X159611Y50005D01*
X159613Y50094D01*
X159614Y50094D02*
X159614Y55316D01*
X159613Y55316D02*
X159611Y55405D01*
X159605Y55493D01*
X159596Y55581D01*
X159583Y55669D01*
X159566Y55756D01*
X159546Y55842D01*
X159521Y55927D01*
X159494Y56012D01*
X159462Y56095D01*
X159428Y56176D01*
X159389Y56256D01*
X159348Y56334D01*
X159303Y56411D01*
X159255Y56485D01*
X159204Y56558D01*
X159150Y56628D01*
X159092Y56695D01*
X159032Y56761D01*
X158970Y56823D01*
X158904Y56883D01*
X158837Y56941D01*
X158767Y56995D01*
X158694Y57046D01*
X158620Y57094D01*
X158543Y57139D01*
X158465Y57180D01*
X158385Y57219D01*
X158304Y57253D01*
X158221Y57285D01*
X158136Y57312D01*
X158051Y57337D01*
X157965Y57357D01*
X157878Y57374D01*
X157790Y57387D01*
X157702Y57396D01*
X157614Y57402D01*
X157525Y57404D01*
X154393Y57404D01*
X149860Y57404D02*
X149860Y48006D01*
X144639Y48006D02*
X149860Y57404D01*
X144639Y57404D02*
X144639Y48006D01*
X140933Y48006D02*
X137801Y57404D01*
X134668Y48006D01*
X135451Y50356D02*
X140150Y50356D01*
X130945Y48006D02*
X130945Y57404D01*
X130945Y48006D02*
X126768Y48006D01*
M02*
