G04 EAGLE Gerber X2 export*
%TF.Part,Single*%
%TF.FileFunction,Soldermask,Top,1*%
%TF.FilePolarity,Negative*%
%TF.GenerationSoftware,Autodesk,EAGLE,9.1.3*%
%TF.CreationDate,2018-08-31T23:25:58Z*%
G75*
%MOMM*%
%FSLAX34Y34*%
%LPD*%
%AMOC8*
5,1,8,0,0,1.08239X$1,22.5*%
G01*
%ADD10P,3.656530X8X22.500000*%
%ADD11P,1.869504X8X22.500000*%
%ADD12R,1.727200X1.727200*%
%ADD13R,1.203200X1.603200*%
%ADD14R,1.403200X1.003200*%
%ADD15R,1.003200X1.403200*%
%ADD16R,1.879600X1.879600*%
%ADD17C,1.879600*%
%ADD18C,1.103200*%


D10*
X101600Y25400D03*
D11*
X38100Y304800D03*
X63500Y304800D03*
X88900Y304800D03*
X114300Y304800D03*
X139700Y304800D03*
X165100Y304800D03*
D12*
X38100Y279400D03*
D11*
X63500Y279400D03*
X88900Y279400D03*
X114300Y279400D03*
X139700Y279400D03*
X165100Y279400D03*
D13*
X177800Y195150D03*
X187300Y173150D03*
X168300Y173150D03*
X25400Y195150D03*
X34900Y173150D03*
X15900Y173150D03*
D14*
X88900Y232300D03*
X88900Y250300D03*
X63500Y232300D03*
X63500Y250300D03*
X38100Y232300D03*
X38100Y250300D03*
X171450Y118000D03*
X171450Y136000D03*
X165100Y232300D03*
X165100Y250300D03*
X139700Y232300D03*
X139700Y250300D03*
D15*
X40750Y82550D03*
X22750Y82550D03*
D14*
X114300Y232300D03*
X114300Y250300D03*
D10*
X152400Y25400D03*
D16*
X63500Y196850D03*
D17*
X63500Y171450D03*
X63500Y146050D03*
X63500Y120650D03*
X139700Y120650D03*
X139700Y146050D03*
X139700Y171450D03*
X139700Y196850D03*
D10*
X50800Y25400D03*
D15*
X129650Y82550D03*
X111650Y82550D03*
D18*
X95250Y139700D03*
M02*
